<svg xmlns="http://www.w3.org/2000/svg" xmlns:xlink="http://www.w3.org/1999/xlink" width="500" zoomAndPan="magnify" viewBox="0 0 375 299.999988" height="400" preserveAspectRatio="xMidYMid meet" version="1.0"><defs><clipPath id="504c7d40d6"><path d="M 30 12.164062 L 345.566406 12.164062 L 345.566406 287 L 30 287 Z M 30 12.164062 " clip-rule="nonzero"/></clipPath><clipPath id="c2cc700813"><path d="M 165 12.164062 L 191 12.164062 L 191 122 L 165 122 Z M 165 12.164062 " clip-rule="nonzero"/></clipPath><clipPath id="7c08cf01fc"><path d="M 197 183 L 345.566406 183 L 345.566406 204 L 197 204 Z M 197 183 " clip-rule="nonzero"/></clipPath><clipPath id="a211d789ee"><path d="M 29.066406 197 L 145 197 L 145 270 L 29.066406 270 Z M 29.066406 197 " clip-rule="nonzero"/></clipPath><clipPath id="a1f7c4a0e0"><path d="M 96 12.164062 L 191 12.164062 L 191 34 L 96 34 Z M 96 12.164062 " clip-rule="nonzero"/></clipPath></defs><g clip-path="url(#504c7d40d6)"><path fill="#dcbb9b" d="M 34.675781 234.238281 C 34.675781 225.585938 34.675781 216.9375 34.675781 208.285156 C 34.675781 207.464844 34.675781 206.960938 33.542969 206.835938 C 32.03125 206.707031 30.960938 205.382812 30.835938 203.804688 C 30.835938 203.425781 30.707031 202.984375 30.582031 202.605469 C 29.574219 200.078125 30.394531 197.804688 31.652344 195.65625 C 31.90625 195.214844 32.285156 194.964844 32.789062 194.964844 C 34.738281 194.898438 36.503906 194.207031 38.140625 193.195312 C 40.410156 191.742188 43.183594 191.554688 45.574219 190.480469 C 46.332031 190.164062 46.644531 189.785156 46.644531 188.964844 C 46.582031 180.125 46.582031 171.347656 46.644531 162.507812 C 46.644531 157.773438 46.773438 153.035156 46.960938 148.300781 C 47.085938 144.070312 47.402344 139.839844 47.65625 135.609375 C 47.71875 134.535156 47.402344 133.964844 46.394531 133.714844 C 45.324219 133.523438 45.007812 132.832031 45.132812 131.820312 C 45.449219 128.976562 45.703125 126.136719 46.015625 123.296875 C 46.015625 122.980469 46.207031 122.664062 46.140625 122.476562 C 45.574219 121.085938 46.457031 120.832031 47.527344 120.582031 C 48.347656 120.390625 49.101562 120.136719 49.921875 119.886719 C 51.625 119.316406 53.449219 119.128906 55.089844 119.886719 C 56.601562 120.582031 58.113281 120.328125 59.5625 120.203125 C 62.835938 120.011719 66.050781 120.265625 69.261719 120.328125 C 79.46875 120.515625 89.609375 120.515625 99.816406 120.582031 C 100.949219 120.582031 101.136719 120.390625 101.074219 119.128906 C 100.761719 112.8125 100.507812 106.5 100.886719 100.183594 C 101.011719 98.289062 100.949219 96.460938 100.949219 94.566406 C 100.949219 87.808594 101.074219 81.117188 100.886719 74.359375 C 100.761719 67.855469 100.445312 61.351562 100.128906 54.847656 C 99.941406 50.871094 99.753906 46.890625 99.6875 42.914062 C 99.625 39.945312 99.5 36.976562 99.183594 33.949219 C 99.121094 33.441406 99.058594 33 98.554688 32.8125 C 97.042969 32.242188 96.917969 30.980469 97.230469 29.71875 C 97.609375 28.203125 97.671875 26.6875 97.863281 25.171875 C 97.925781 24.539062 98.050781 23.972656 98.808594 23.972656 C 102.144531 23.78125 105.421875 22.960938 108.699219 22.390625 C 114.746094 21.382812 120.730469 20.308594 126.714844 19.234375 C 131.566406 18.351562 136.351562 17.46875 141.203125 16.644531 C 147.3125 15.574219 153.425781 14.5625 159.472656 13.488281 C 160.984375 13.238281 162.558594 13.109375 164.070312 12.605469 C 165.332031 12.164062 166.589844 12.792969 167.851562 13.046875 C 173.269531 14.246094 178.8125 15.128906 184.230469 16.457031 C 185.679688 16.835938 187 17.402344 188.511719 17.59375 C 189.773438 17.71875 190.027344 18.605469 189.457031 19.675781 C 188.953125 20.625 189.015625 21.699219 189.082031 22.707031 C 189.207031 26.054688 188.386719 29.273438 187.882812 32.558594 C 187.632812 34.074219 187.695312 35.527344 187.820312 37.042969 C 188.199219 45.25 187.945312 53.523438 188.007812 61.730469 C 188.007812 67.160156 188.324219 72.527344 188.578125 77.894531 C 188.765625 82.503906 189.082031 87.050781 189.332031 91.660156 C 189.457031 93.996094 189.457031 96.394531 189.523438 98.734375 C 189.523438 99.492188 189.710938 99.871094 190.53125 99.742188 C 190.59375 99.742188 190.71875 99.742188 190.78125 99.742188 C 207.726562 99.804688 224.671875 100.121094 241.683594 99.996094 C 251.003906 99.933594 260.390625 100.058594 269.714844 99.996094 C 273.746094 99.996094 277.714844 99.742188 281.683594 99.113281 C 285.210938 98.542969 288.742188 98.859375 292.269531 99.554688 C 295.230469 100.121094 298.316406 100.25 301.339844 100.5 C 306.757812 100.941406 312.175781 101.007812 317.59375 101.007812 C 318.726562 101.007812 319.355469 101.257812 319.546875 102.710938 C 319.859375 105.488281 319.355469 108.203125 319.417969 110.917969 C 319.417969 111.613281 319.042969 111.992188 318.285156 111.867188 C 318.097656 111.867188 317.90625 111.804688 317.71875 111.867188 C 315.578125 112.371094 315.449219 112.5625 315.703125 114.835938 C 315.703125 115.023438 315.703125 115.277344 315.703125 115.464844 C 315.828125 120.265625 315.828125 125 316.019531 129.800781 C 316.207031 135.417969 316.332031 140.976562 316.523438 146.59375 C 316.710938 152.089844 316.773438 157.644531 317.027344 163.140625 C 317.214844 168 317.152344 172.863281 317.214844 177.726562 C 317.214844 178.863281 317.53125 179.367188 318.851562 179.429688 C 322.316406 179.554688 325.78125 180.0625 329.246094 180.3125 C 332.964844 180.566406 336.679688 181.136719 340.398438 180.757812 C 341.277344 180.691406 342.222656 180.820312 343.105469 180.882812 C 343.734375 180.945312 344.050781 181.386719 344.238281 181.894531 C 345.121094 185.113281 345.5 188.332031 344.871094 191.617188 C 344.679688 192.5 344.238281 193.195312 343.292969 193.320312 C 342.726562 193.449219 342.601562 193.761719 342.601562 194.332031 C 342.539062 196.667969 342.539062 199.066406 342.351562 201.402344 C 342.097656 205.191406 341.65625 208.980469 341.46875 212.769531 C 341.214844 218.136719 340.902344 223.441406 341.277344 228.808594 C 341.46875 231.710938 341.910156 234.679688 341.910156 237.585938 C 341.910156 242.003906 342.285156 246.425781 342.222656 250.910156 C 342.222656 252.046875 342.097656 252.675781 340.710938 253.117188 C 338.949219 253.625 337.375 254.761719 335.734375 255.582031 C 328.804688 259.117188 321.8125 262.589844 314.882812 266.125 C 311.167969 268.019531 307.386719 269.789062 303.671875 271.808594 C 301.402344 273.070312 299.132812 273.070312 296.742188 272.757812 C 296.363281 272.691406 295.984375 272.628906 295.605469 272.628906 C 291.828125 272.503906 287.984375 272.503906 284.203125 272.3125 C 277.527344 272 270.785156 271.746094 264.109375 271.554688 C 259.824219 271.429688 255.605469 271.242188 251.320312 271.050781 C 246.847656 270.863281 242.375 270.734375 237.902344 270.546875 C 233.808594 270.355469 229.714844 270.230469 225.617188 270.039062 C 219.253906 269.789062 212.894531 269.535156 206.53125 269.28125 C 203.949219 269.15625 201.300781 269.09375 198.71875 268.96875 C 193.238281 268.589844 193.300781 268.714844 187.945312 270.734375 C 178.246094 274.398438 168.542969 277.933594 158.84375 281.53125 C 154.9375 282.984375 150.96875 284.3125 147.0625 285.828125 C 145.046875 286.648438 143.15625 286.585938 141.078125 286.269531 C 136.289062 285.511719 131.503906 284.941406 126.714844 284.3125 C 122.179688 283.679688 117.644531 283.046875 113.105469 282.417969 C 109.136719 281.847656 105.167969 281.34375 101.199219 280.839844 C 97.167969 280.269531 93.199219 279.703125 89.167969 279.195312 C 85.261719 278.691406 81.292969 278.125 77.386719 277.617188 C 73.355469 277.050781 69.324219 276.480469 65.230469 275.914062 C 60.632812 275.28125 56.03125 274.777344 51.496094 274.082031 C 46.582031 273.324219 41.605469 272.820312 36.691406 271.871094 C 35.621094 271.683594 35.054688 271.175781 35.117188 270.105469 C 35.117188 269.410156 35.117188 268.714844 35.054688 267.957031 C 34.613281 256.84375 34.675781 245.542969 34.675781 234.238281 Z M 34.675781 234.238281 " fill-opacity="1" fill-rule="nonzero"/></g><path fill="#cdaa89" d="M 143.28125 282.542969 C 143.28125 277.492188 143.410156 272.441406 143.21875 267.390625 C 143.03125 262.714844 142.96875 258.105469 143.15625 253.433594 C 143.410156 247.6875 143.34375 241.941406 143.21875 236.257812 C 143.15625 232.28125 143.21875 228.304688 143.03125 224.324219 C 142.839844 219.714844 143.535156 215.230469 143.914062 210.6875 C 144.164062 207.78125 144.164062 204.875 144.542969 201.972656 C 144.667969 200.898438 144.984375 200.394531 146.179688 200.265625 C 150.023438 199.824219 153.867188 199.636719 157.644531 199.320312 C 163.1875 198.816406 168.667969 198.5 174.152344 197.679688 C 179.441406 196.921875 184.796875 196.289062 190.089844 195.59375 C 191.035156 195.46875 191.976562 195.214844 192.859375 195.027344 C 193.996094 194.773438 194.625 195.214844 194.8125 196.289062 C 195.128906 199.066406 194.8125 201.847656 194.5625 204.5625 C 194.5 205.320312 194.246094 206.078125 193.742188 206.582031 C 192.859375 207.464844 192.796875 208.476562 192.796875 209.550781 C 192.796875 211.316406 192.859375 213.023438 192.796875 214.789062 C 192.671875 222.683594 192.167969 230.511719 191.601562 238.40625 C 191.347656 242.003906 191.539062 245.667969 191.851562 249.203125 C 192.292969 253.6875 192.292969 258.167969 192.230469 262.652344 C 192.230469 264.042969 192.042969 265.367188 192.546875 266.695312 C 192.796875 267.453125 192.355469 267.769531 191.789062 267.957031 C 185.742188 269.976562 179.820312 272.378906 173.582031 273.957031 C 170.246094 274.777344 167.222656 276.609375 163.945312 277.492188 C 159.347656 278.816406 154.9375 280.523438 150.777344 282.859375 C 148.824219 283.933594 146.558594 284.121094 144.605469 285.003906 C 143.914062 285.320312 143.34375 284.878906 143.28125 283.996094 C 143.28125 283.554688 143.28125 283.046875 143.28125 282.542969 Z M 143.28125 282.542969 " fill-opacity="1" fill-rule="nonzero"/><path fill="#cdaa89" d="M 183.347656 122.539062 C 186.75 122.539062 190.214844 122.539062 193.617188 122.539062 C 194.9375 122.539062 195.820312 123.484375 195.507812 124.8125 C 195.441406 125.125 195.191406 125.441406 195.378906 125.757812 C 196.324219 128.03125 195.820312 130.367188 195.441406 132.640625 C 194.371094 138.386719 193.867188 144.132812 193.742188 149.941406 C 193.617188 157.015625 193.867188 164.085938 193.929688 171.09375 C 193.996094 176.460938 194.433594 181.894531 194.5625 187.261719 C 194.625 189.027344 194.5 189.089844 192.734375 189.34375 C 190.339844 189.660156 188.074219 190.667969 185.617188 190.984375 C 179.757812 191.804688 174.085938 193.636719 168.230469 194.207031 C 164.449219 194.585938 160.730469 195.277344 157.015625 196.035156 C 156.195312 196.226562 155.316406 196.480469 154.496094 196.730469 C 152.730469 197.300781 150.90625 196.792969 149.140625 197.171875 C 148.195312 197.363281 147.628906 196.414062 147.628906 195.40625 C 147.628906 192.4375 147.441406 189.53125 147.125 186.566406 C 146.621094 182.019531 146.808594 177.410156 146.9375 172.863281 C 147.25 163.074219 147.1875 153.289062 147 143.4375 C 146.9375 138.007812 147 132.578125 146.875 127.148438 C 146.808594 125.191406 146.808594 125.125 148.761719 124.9375 C 152.542969 124.558594 156.324219 124.179688 160.101562 123.988281 C 166.277344 123.675781 172.511719 123.296875 178.6875 122.789062 C 180.261719 122.664062 181.835938 122.789062 183.410156 122.789062 C 183.347656 122.664062 183.347656 122.601562 183.347656 122.539062 Z M 183.347656 122.539062 " fill-opacity="1" fill-rule="nonzero"/><path fill="#cdaa89" d="M 297.875 233.292969 C 298.125 225.523438 298.0625 218.011719 299.261719 210.558594 C 299.640625 208.097656 299.574219 205.507812 299.828125 202.984375 C 300.015625 201.152344 300.332031 199.382812 300.332031 197.550781 C 300.332031 195.089844 299.890625 192.691406 299.449219 190.289062 C 299.324219 189.40625 299.511719 188.839844 300.207031 188.332031 C 300.898438 187.828125 301.78125 187.765625 302.410156 188.269531 C 303.292969 188.964844 304.113281 188.964844 305.183594 188.839844 C 312.929688 187.953125 320.617188 186.503906 328.363281 185.554688 C 331.390625 185.175781 334.414062 184.859375 337.5 184.480469 C 338.632812 184.355469 339.765625 183.914062 340.839844 183.535156 C 342.601562 182.839844 343.671875 183.34375 344.050781 185.238281 C 344.554688 187.636719 344.113281 190.039062 343.925781 192.4375 C 343.863281 193.070312 343.546875 193.699219 342.917969 193.699219 C 341.78125 193.761719 341.910156 194.394531 341.847656 195.214844 C 341.277344 199.761719 341.46875 204.308594 341.214844 208.855469 C 341.089844 211.695312 341.34375 214.601562 341.34375 217.441406 C 341.34375 222.242188 341.152344 227.039062 341.214844 231.902344 C 341.214844 234.300781 341.277344 236.699219 341.34375 239.101562 C 341.46875 242.824219 340.773438 246.550781 340.839844 250.277344 C 340.839844 251.289062 340.144531 251.855469 339.453125 252.359375 C 337.121094 254.003906 334.789062 255.582031 332.144531 256.527344 C 328.996094 257.664062 326.476562 259.8125 323.578125 261.265625 C 321.625 262.210938 319.609375 263.09375 317.65625 264.105469 C 314.191406 265.875 311.105469 268.335938 307.703125 270.167969 C 306.0625 271.050781 304.425781 271.746094 302.535156 271.621094 C 300.835938 271.554688 300.332031 270.988281 300.144531 269.28125 C 299.574219 263.472656 299.703125 257.664062 299.132812 251.917969 C 298.378906 245.605469 298.0625 239.351562 297.875 233.292969 Z M 297.875 233.292969 " fill-opacity="1" fill-rule="nonzero"/><path fill="#cdaa89" d="M 314.757812 154.171875 C 314.695312 160.929688 315.136719 167.683594 315.890625 174.441406 C 316.082031 176.082031 315.953125 177.789062 315.953125 179.429688 C 315.953125 180.25 315.511719 180.628906 314.695312 180.628906 C 313.496094 180.566406 312.363281 180.757812 311.292969 181.386719 C 310.097656 182.082031 308.648438 182.082031 307.386719 181.828125 C 304.929688 181.324219 302.597656 181.894531 300.332031 182.523438 C 296.175781 183.722656 291.890625 184.480469 287.667969 185.554688 C 286.597656 185.808594 285.714844 185.367188 284.644531 184.988281 C 281.8125 184.039062 283.257812 181.828125 283.007812 180.25 C 282.753906 178.925781 282.945312 177.410156 282.882812 175.957031 C 282.820312 173.367188 282.882812 170.78125 282.820312 168.253906 C 282.753906 157.519531 282.691406 146.722656 282.503906 135.988281 C 282.441406 131.125 282 126.261719 282.0625 121.402344 C 282.0625 116.351562 282.441406 111.296875 282.753906 106.246094 C 282.882812 104.226562 282.820312 102.207031 282.820312 100.121094 C 282.820312 99.300781 283.070312 98.605469 283.828125 98.289062 C 284.582031 97.910156 285.085938 98.417969 285.464844 98.984375 C 285.652344 99.300781 285.90625 99.300781 286.21875 99.238281 C 288.929688 98.796875 291.574219 99.175781 294.222656 99.679688 C 295.292969 99.871094 296.300781 99.679688 297.308594 99.679688 C 301.464844 99.554688 305.558594 99.679688 309.65625 100.375 C 310.03125 100.4375 310.410156 100.5 310.726562 100.628906 C 312.617188 101.511719 314.570312 101.699219 316.648438 101.449219 C 318.664062 101.195312 319.480469 101.890625 319.546875 103.910156 C 319.671875 106.246094 320.050781 108.519531 320.300781 110.792969 C 320.492188 112.8125 320.050781 113.382812 318.035156 113.320312 C 316.082031 113.320312 316.082031 113.320312 315.890625 115.277344 C 315.703125 118.242188 315.449219 121.148438 315.386719 124.117188 C 315.261719 129.230469 315.261719 134.34375 315.074219 139.460938 C 315.007812 144.320312 314.695312 149.246094 314.757812 154.171875 Z M 314.757812 154.171875 " fill-opacity="1" fill-rule="nonzero"/><g clip-path="url(#c2cc700813)"><path fill="#cdaa89" d="M 188.007812 120.203125 C 185.867188 119 183.726562 120.515625 181.585938 121.023438 C 177.617188 121.90625 173.898438 121.210938 170.117188 120.136719 C 169.171875 119.886719 168.292969 119.632812 167.347656 119.757812 C 166.527344 119.824219 166.148438 119.316406 166.023438 118.558594 C 165.898438 117.675781 165.835938 116.730469 165.773438 115.84375 C 165.644531 111.550781 165.582031 107.320312 165.519531 103.027344 C 165.394531 90.585938 165.394531 78.210938 165.203125 65.773438 C 164.953125 52.636719 165.078125 39.503906 165.078125 26.371094 C 165.078125 22.203125 165.203125 18.097656 165.269531 13.929688 C 165.269531 12.859375 165.644531 12.542969 166.78125 12.605469 C 170.875 12.921875 174.65625 14.4375 178.6875 15.320312 C 181.773438 16.015625 184.921875 16.582031 188.074219 16.898438 C 189.648438 17.089844 190.089844 17.910156 189.523438 19.363281 C 189.394531 19.613281 189.332031 19.929688 189.332031 20.183594 C 189.269531 27.949219 188.765625 35.714844 188.511719 43.417969 C 188.007812 59.332031 188.136719 75.242188 188.136719 91.15625 C 188.136719 93.300781 188.136719 95.449219 188.136719 97.660156 C 188.007812 103.785156 188.578125 109.972656 188.386719 116.097656 C 188.386719 116.980469 188.324219 117.800781 189.523438 118.117188 C 190.027344 118.242188 190.214844 118.8125 190.027344 119.378906 C 189.710938 120.203125 189.015625 120.265625 188.007812 120.203125 Z M 188.007812 120.203125 " fill-opacity="1" fill-rule="nonzero"/></g><path fill="#d5b495" d="M 144.855469 103.972656 C 144.792969 108.015625 141.078125 110.667969 137.359375 109.53125 C 135.15625 108.898438 133.519531 107.382812 132.132812 105.679688 C 124.070312 96.015625 117.203125 85.535156 111.15625 74.484375 C 109.265625 71.011719 107.058594 67.730469 105.546875 64.128906 C 103.972656 60.40625 105.988281 56.617188 109.894531 55.984375 C 112.289062 55.605469 114.242188 56.804688 115.4375 58.761719 C 117.515625 62.171875 119.46875 65.707031 121.421875 69.246094 C 126.839844 78.96875 132.824219 88.1875 139.816406 96.839844 C 140.574219 97.785156 141.457031 98.605469 142.402344 99.300781 C 143.914062 100.5 144.792969 102.140625 144.855469 103.972656 Z M 144.855469 103.972656 " fill-opacity="1" fill-rule="nonzero"/><path fill="#d5b495" d="M 46.207031 235.816406 C 47.78125 235.691406 49.039062 236.574219 50.363281 237.523438 C 62.898438 246.613281 75.058594 256.210938 87.71875 265.050781 C 89.421875 266.253906 90.808594 267.640625 91.183594 269.851562 C 91.816406 273.199219 88.726562 276.542969 85.324219 276.164062 C 83.308594 275.976562 81.734375 274.964844 80.160156 273.894531 C 70.082031 266.757812 60.253906 259.304688 50.425781 251.917969 C 48.222656 250.277344 45.953125 248.761719 43.8125 247.121094 C 42.488281 246.109375 41.292969 244.972656 40.726562 243.269531 C 39.464844 239.351562 41.984375 235.753906 46.207031 235.816406 Z M 46.207031 235.816406 " fill-opacity="1" fill-rule="nonzero"/><path fill="#d5b495" d="M 236.894531 263.03125 C 235.570312 263.09375 234.3125 262.402344 233.113281 261.515625 C 228.578125 258.042969 224.296875 254.253906 220.011719 250.464844 C 214.214844 245.289062 208.484375 240.046875 202.371094 235.1875 C 200.734375 233.859375 199.222656 232.34375 198.90625 230.070312 C 198.59375 227.925781 199.222656 226.09375 201.050781 224.832031 C 202.875 223.566406 204.765625 223.566406 206.71875 224.453125 C 209.238281 225.523438 211.191406 227.417969 213.207031 229.1875 C 220.765625 235.753906 228.265625 242.382812 235.824219 249.015625 C 237.585938 250.53125 239.601562 251.730469 241.179688 253.433594 C 244.265625 256.65625 243.003906 261.644531 238.785156 262.90625 C 238.21875 263.03125 237.714844 263.03125 236.894531 263.03125 Z M 236.894531 263.03125 " fill-opacity="1" fill-rule="nonzero"/><path fill="#d5b496" d="M 60.441406 174.695312 C 58.804688 173.367188 57.105469 172.042969 55.464844 170.714844 C 53.136719 168.886719 52.128906 165.855469 52.945312 163.582031 C 54.207031 160.171875 58.238281 158.910156 61.511719 161.054688 C 63.402344 162.253906 65.042969 163.832031 66.867188 165.097656 C 72.789062 169.199219 78.585938 173.683594 84.949219 177.15625 C 87.53125 178.546875 88.789062 180.945312 88.285156 183.28125 C 87.59375 186.503906 84.507812 188.460938 81.230469 187.765625 C 79.089844 187.324219 77.324219 186.25 75.5625 185.050781 C 71.90625 182.648438 68.316406 180.1875 64.539062 177.976562 C 64.976562 178.417969 65.417969 178.863281 65.859375 179.304688 C 67.6875 181.261719 68.066406 184.101562 66.742188 186.1875 C 65.417969 188.207031 62.710938 189.152344 60.253906 188.332031 C 57.480469 187.386719 55.277344 185.746094 53.511719 183.40625 C 52.191406 181.640625 52.191406 178.734375 53.449219 176.96875 C 54.773438 175.074219 57.167969 174.1875 59.496094 174.882812 C 59.75 174.945312 60.066406 175.011719 60.316406 175.074219 C 60.378906 174.820312 60.378906 174.757812 60.441406 174.695312 Z M 60.441406 174.695312 " fill-opacity="1" fill-rule="nonzero"/><path fill="#d5b495" d="M 44.191406 252.800781 C 45.636719 252.675781 46.960938 253.371094 48.222656 254.191406 C 50.425781 255.582031 52.566406 257.097656 54.648438 258.675781 C 57.859375 261.074219 57.859375 265.179688 54.835938 267.703125 C 53.199219 269.09375 50.109375 269.09375 47.71875 267.703125 C 45.511719 266.441406 43.496094 264.988281 41.480469 263.410156 C 39.652344 262.023438 38.582031 260.128906 38.707031 257.726562 C 38.773438 254.949219 41.101562 252.800781 44.191406 252.800781 Z M 44.191406 252.800781 " fill-opacity="1" fill-rule="nonzero"/><path fill="#d5b495" d="M 118.777344 111.929688 C 116.699219 112.054688 115.058594 110.984375 113.800781 109.53125 C 111.910156 107.320312 110.335938 104.921875 109.074219 102.269531 C 107.878906 99.742188 108.128906 97.027344 109.769531 95.324219 C 112.164062 92.796875 116.257812 93.175781 118.523438 96.207031 C 120.289062 98.542969 121.925781 101.003906 123.4375 103.53125 C 125.894531 107.507812 123.375 111.929688 118.777344 111.929688 Z M 118.777344 111.929688 " fill-opacity="1" fill-rule="nonzero"/><path fill="#d5b495" d="M 200.859375 249.328125 C 200.796875 246.992188 201.933594 245.351562 203.757812 244.277344 C 205.710938 243.140625 207.917969 243.203125 209.554688 244.65625 C 212.261719 246.992188 214.78125 249.519531 216.484375 252.675781 C 217.492188 254.507812 217.617188 256.464844 216.167969 258.296875 C 214.53125 260.316406 212.390625 260.507812 210.121094 259.9375 C 209.871094 259.875 209.617188 259.8125 209.429688 259.683594 C 205.835938 257.917969 203.253906 255.011719 201.300781 251.601562 C 200.925781 250.84375 200.734375 250.023438 200.859375 249.328125 Z M 200.859375 249.328125 " fill-opacity="1" fill-rule="nonzero"/><path fill="#d5b496" d="M 141.832031 150.066406 C 139.3125 150.066406 136.730469 147.796875 136.414062 145.269531 C 136.039062 142.429688 138.496094 140.34375 141.203125 141.164062 C 143.597656 141.921875 145.046875 143.566406 145.550781 146.027344 C 145.992188 148.300781 144.289062 150.132812 141.832031 150.066406 Z M 141.832031 150.066406 " fill-opacity="1" fill-rule="nonzero"/><path fill="#d5b496" d="M 141.644531 219.148438 C 141.265625 223.0625 139.816406 223.25 137.109375 221.988281 C 135.40625 221.167969 134.148438 219.84375 133.582031 218.011719 C 133.140625 216.621094 133.582031 215.230469 134.589844 214.410156 C 135.660156 213.527344 136.984375 213.464844 138.304688 214.160156 C 140.511719 215.230469 141.644531 217.0625 141.644531 219.148438 Z M 141.644531 219.148438 " fill-opacity="1" fill-rule="nonzero"/><path fill="#d5b596" d="M 161.804688 29.023438 C 161.613281 29.652344 162.179688 30.664062 161.234375 31.042969 C 160.417969 31.421875 159.914062 30.539062 159.347656 30.160156 C 158.652344 29.652344 157.960938 29.085938 157.582031 28.265625 C 157.015625 27.066406 157.332031 25.800781 158.464844 25.296875 C 159.597656 24.730469 160.730469 25.109375 161.425781 26.308594 C 161.929688 27.128906 161.804688 28.074219 161.804688 29.023438 Z M 161.804688 29.023438 " fill-opacity="1" fill-rule="nonzero"/><path fill="#d6b596" d="M 296.613281 209.613281 C 296.613281 210.6875 295.859375 211.886719 295.164062 211.757812 C 293.589844 211.570312 292.140625 210.6875 292.207031 209.042969 C 292.207031 207.78125 293.023438 206.898438 294.285156 206.898438 C 295.605469 206.835938 296.613281 207.972656 296.613281 209.613281 Z M 296.613281 209.613281 " fill-opacity="1" fill-rule="nonzero"/><path fill="#d6b597" d="M 272.800781 116.097656 C 274 116.097656 274.691406 116.730469 274.753906 117.675781 C 274.816406 118.75 273.808594 119.632812 272.613281 119.632812 C 271.605469 119.632812 270.785156 118.75 270.785156 117.863281 C 270.847656 116.855469 271.667969 116.097656 272.800781 116.097656 Z M 272.800781 116.097656 " fill-opacity="1" fill-rule="nonzero"/><path fill="#d5b495" d="M 210.8125 167.558594 C 209.617188 166.359375 208.484375 165.097656 207.222656 164.023438 C 204.828125 162.003906 201.996094 161.8125 199.601562 163.582031 C 198.90625 164.085938 198.53125 164.96875 197.898438 165.539062 C 197.394531 167.054688 197.269531 168.570312 198.027344 170.023438 C 199.726562 173.304688 202.371094 175.578125 205.964844 176.460938 C 208.925781 177.21875 211.695312 175.453125 212.261719 172.671875 C 212.578125 170.714844 211.886719 169.074219 210.8125 167.558594 Z M 210.8125 167.558594 " fill-opacity="1" fill-rule="nonzero"/><path fill="#d5b495" d="M 229.273438 165.285156 C 228.640625 165.160156 228.074219 164.90625 227.570312 164.589844 C 222.027344 161.246094 217.429688 156.761719 212.515625 152.65625 C 210.6875 151.078125 208.988281 149.4375 206.972656 148.109375 C 205.019531 146.847656 202.875 146.46875 200.734375 147.667969 C 197.648438 149.375 196.957031 153.097656 199.160156 156.003906 C 200.734375 158.085938 203.003906 159.476562 204.894531 161.308594 C 205.902344 161.625 206.46875 162.507812 207.160156 163.140625 C 208.355469 164.148438 209.679688 164.96875 210.5625 166.296875 C 212.703125 168 214.847656 169.769531 217.113281 171.410156 C 219.949219 173.496094 222.785156 175.578125 226.25 176.589844 C 229.839844 177.660156 233.304688 175.832031 234.1875 172.609375 C 235.003906 169.328125 232.863281 165.855469 229.273438 165.285156 Z M 229.273438 165.285156 " fill-opacity="1" fill-rule="nonzero"/><path fill="#ffffff" d="M 122.996094 27.378906 C 125.011719 26.242188 127.21875 25.738281 129.359375 25.234375 C 138.433594 23.339844 147.503906 21.824219 156.699219 20.75 C 158.78125 20.496094 160.796875 20.433594 162.875 20.308594 C 163.316406 20.308594 163.882812 20.246094 163.945312 20.8125 C 164.007812 21.320312 163.441406 21.382812 163.0625 21.445312 C 159.410156 22.265625 155.753906 22.644531 152.039062 23.148438 C 144.605469 24.222656 137.109375 24.980469 129.738281 26.308594 C 127.660156 26.6875 125.515625 27 123.4375 27.378906 C 123.3125 27.445312 123.1875 27.378906 122.996094 27.378906 Z M 122.996094 27.378906 " fill-opacity="1" fill-rule="nonzero"/><path fill="#ffffff" d="M 107.816406 133.585938 C 108.886719 132.832031 110.148438 132.832031 111.34375 132.703125 C 116.699219 132.136719 121.988281 132.386719 127.34375 132.515625 C 132.445312 132.640625 137.488281 132.957031 142.589844 133.652344 C 142.90625 133.714844 143.472656 133.523438 143.472656 134.09375 C 143.472656 134.597656 142.90625 134.535156 142.589844 134.597656 C 141.265625 134.722656 139.945312 134.851562 138.621094 134.851562 C 129.234375 134.660156 119.847656 133.964844 110.460938 133.902344 C 109.515625 133.839844 108.632812 133.652344 107.816406 133.585938 Z M 107.816406 133.585938 " fill-opacity="1" fill-rule="nonzero"/><path fill="#ffffff" d="M 278.785156 126.390625 C 278.597656 130.113281 278.785156 133.964844 277.96875 137.691406 C 277.84375 138.199219 278.03125 139.082031 277.273438 139.019531 C 276.769531 138.953125 277.023438 138.199219 276.960938 137.691406 C 276.203125 132.894531 276.519531 128.03125 276.644531 123.167969 C 276.707031 121.273438 276.898438 119.378906 277.023438 117.484375 C 277.085938 116.917969 277.148438 116.222656 277.90625 116.222656 C 278.660156 116.222656 278.597656 116.980469 278.597656 117.484375 C 278.914062 120.390625 278.660156 123.359375 278.785156 126.390625 Z M 278.785156 126.390625 " fill-opacity="1" fill-rule="nonzero"/><path fill="#ffffff" d="M 37.511719 209.550781 C 38.140625 210.054688 38.078125 210.8125 38.078125 211.507812 C 38.644531 218.390625 39.277344 225.210938 39.148438 232.15625 C 39.148438 232.785156 39.339844 233.796875 38.582031 233.859375 C 37.699219 233.921875 37.765625 232.847656 37.699219 232.21875 C 37.449219 230.261719 37.261719 228.238281 37.195312 226.28125 C 37.070312 221.042969 36.566406 215.800781 37.132812 210.621094 C 37.195312 210.179688 37.007812 209.738281 37.511719 209.550781 Z M 37.511719 209.550781 " fill-opacity="1" fill-rule="nonzero"/><path fill="#ffffff" d="M 296.175781 218.390625 C 296.046875 221.671875 296.425781 224.894531 295.921875 228.050781 C 295.859375 228.554688 295.734375 228.996094 295.667969 229.503906 C 295.605469 229.753906 295.542969 230.070312 295.292969 230.007812 C 295.101562 230.007812 294.976562 229.691406 294.914062 229.441406 C 294.789062 227.480469 294.535156 225.585938 294.472656 223.628906 C 294.285156 218.707031 294.410156 213.71875 294.472656 208.792969 C 294.472656 208.222656 294.347656 207.214844 295.039062 207.214844 C 295.859375 207.214844 295.667969 208.160156 295.734375 208.792969 C 296.109375 212.011719 295.921875 215.296875 296.175781 218.390625 Z M 296.175781 218.390625 " fill-opacity="1" fill-rule="nonzero"/><path fill="#ffffff" d="M 105.105469 53.078125 C 105.105469 53.269531 105.042969 53.902344 104.539062 54.027344 C 104.035156 54.089844 103.785156 53.457031 103.65625 53.015625 C 102.902344 50.238281 102.523438 47.332031 102.210938 44.492188 C 101.894531 41.964844 101.578125 39.378906 101.640625 36.789062 C 101.640625 36.285156 101.328125 35.527344 102.082031 35.398438 C 102.839844 35.273438 102.839844 36.09375 102.902344 36.535156 C 103.847656 40.324219 104.289062 44.175781 104.664062 48.027344 C 104.730469 49.605469 104.917969 51.1875 105.105469 53.078125 Z M 105.105469 53.078125 " fill-opacity="1" fill-rule="nonzero"/><path fill="#ffffff" d="M 288.929688 198.941406 C 286.535156 198.625 283.953125 198.941406 281.433594 198.308594 C 281.054688 198.183594 280.550781 198.246094 280.550781 197.804688 C 280.488281 197.300781 281.054688 197.238281 281.433594 197.109375 C 282.628906 196.667969 283.953125 196.605469 285.210938 196.605469 C 288.425781 196.667969 291.574219 196.667969 294.726562 196.984375 C 295.039062 196.984375 295.292969 197.046875 295.542969 197.109375 C 295.984375 197.238281 296.425781 197.488281 296.363281 198.058594 C 296.300781 198.625 295.796875 198.6875 295.355469 198.75 C 293.339844 199.003906 291.195312 198.941406 288.929688 198.941406 Z M 288.929688 198.941406 " fill-opacity="1" fill-rule="nonzero"/><path fill="#ffffff" d="M 50.488281 123.105469 C 51.183594 123.167969 51.558594 123.421875 51.875 123.675781 C 54.960938 125.949219 57.859375 128.347656 60.695312 130.871094 C 61.136719 131.25 61.640625 131.695312 61.199219 132.324219 C 60.757812 133.019531 60.128906 132.765625 59.5625 132.453125 C 56.976562 130.871094 54.773438 128.789062 52.503906 126.832031 C 51.6875 126.074219 50.867188 125.316406 50.109375 124.496094 C 49.859375 124.242188 49.671875 123.863281 49.921875 123.484375 C 50.109375 123.230469 50.363281 123.105469 50.488281 123.105469 Z M 50.488281 123.105469 " fill-opacity="1" fill-rule="nonzero"/><path fill="#ffffff" d="M 50.804688 145.332031 C 50.804688 142.492188 50.804688 140.40625 50.804688 138.261719 C 50.804688 137.820312 50.679688 137.25 51.308594 137.1875 C 52 137.125 52 137.753906 52.128906 138.199219 C 52.632812 140.21875 52.632812 142.300781 52.695312 144.386719 C 52.820312 147.351562 52.820312 150.320312 52.316406 153.289062 C 52.253906 153.542969 52.128906 153.855469 52.0625 154.109375 C 52 154.363281 51.9375 154.742188 51.558594 154.679688 C 51.246094 154.613281 51.371094 154.300781 51.308594 154.046875 C 50.613281 150.890625 50.929688 147.730469 50.804688 145.332031 Z M 50.804688 145.332031 " fill-opacity="1" fill-rule="nonzero"/><path fill="#ffffff" d="M 140.070312 210.75 C 137.296875 210.496094 134.085938 210.433594 130.933594 209.738281 C 130.621094 209.675781 130.179688 209.863281 130.179688 209.359375 C 130.179688 208.855469 130.683594 208.855469 131 208.792969 C 133.203125 208.285156 135.472656 208.664062 137.675781 208.792969 C 139.3125 208.917969 140.953125 209.234375 142.589844 209.484375 C 143.09375 209.550781 143.535156 209.738281 143.535156 210.308594 C 143.535156 210.875 142.96875 210.8125 142.589844 210.8125 C 141.832031 210.75 141.140625 210.75 140.070312 210.75 Z M 140.070312 210.75 " fill-opacity="1" fill-rule="nonzero"/><path fill="#ffffff" d="M 44.125 204.941406 C 44.0625 204.941406 43.75 204.875 43.496094 204.75 C 40.914062 203.488281 38.457031 201.910156 36.441406 199.824219 C 36.125 199.507812 35.683594 199.128906 36 198.6875 C 36.316406 198.246094 36.757812 198.6875 37.070312 198.816406 C 39.78125 200.140625 42.300781 201.78125 44.820312 203.425781 C 45.199219 203.675781 45.449219 203.929688 45.324219 204.433594 C 45.199219 204.875 44.820312 205.003906 44.125 204.941406 Z M 44.125 204.941406 " fill-opacity="1" fill-rule="nonzero"/><path fill="#ffffff" d="M 271.605469 108.203125 C 270.472656 108.203125 269.273438 108.203125 268.140625 108.203125 C 267.761719 108.203125 267.320312 108.203125 267.320312 107.699219 C 267.257812 107.128906 267.761719 107.003906 268.140625 107.003906 C 270.976562 106.625 273.808594 106.6875 276.707031 106.878906 C 277.210938 106.878906 277.90625 106.878906 277.84375 107.699219 C 277.777344 108.394531 277.085938 108.203125 276.644531 108.265625 C 274.882812 108.457031 273.242188 108.519531 271.605469 108.203125 Z M 271.605469 108.203125 " fill-opacity="1" fill-rule="nonzero"/><path fill="#ffffff" d="M 104.601562 30.160156 C 104.414062 30.097656 104.035156 29.90625 103.722656 29.71875 C 102.335938 28.894531 101.265625 27.632812 100.191406 26.433594 C 99.878906 26.054688 99.5625 25.550781 100.003906 25.109375 C 100.382812 24.730469 100.886719 24.855469 101.265625 25.171875 C 102.714844 26.308594 104.226562 27.445312 105.609375 28.644531 C 105.925781 28.894531 106.179688 29.273438 105.863281 29.71875 C 105.671875 30.160156 105.296875 30.285156 104.601562 30.160156 Z M 104.601562 30.160156 " fill-opacity="1" fill-rule="nonzero"/><path fill="#ffffff" d="M 291.195312 193.890625 C 290.628906 193.828125 290.0625 193.828125 289.496094 193.761719 C 289.117188 193.761719 288.742188 193.699219 288.675781 193.195312 C 288.675781 192.753906 288.929688 192.5 289.308594 192.375 C 290.1875 191.996094 291.132812 191.996094 292.078125 191.996094 C 292.269531 191.996094 292.519531 191.996094 292.710938 192.058594 C 293.402344 192.25 294.597656 191.871094 294.535156 193.003906 C 294.472656 194.015625 293.277344 193.699219 292.582031 193.828125 C 292.140625 193.953125 291.699219 193.890625 291.195312 193.890625 Z M 291.195312 193.890625 " fill-opacity="1" fill-rule="nonzero"/><path fill="#ffffff" d="M 37.195312 203.363281 C 37.070312 203.867188 36.757812 204.371094 36.125 204.054688 C 34.804688 203.488281 33.984375 202.414062 33.355469 201.152344 C 33.101562 200.644531 33.480469 200.265625 33.984375 200.203125 C 34.675781 200.203125 37.195312 202.605469 37.195312 203.363281 Z M 37.195312 203.363281 " fill-opacity="1" fill-rule="nonzero"/><path fill="#ffffff" d="M 274.441406 105.488281 C 273.746094 105.425781 272.675781 105.617188 272.613281 104.730469 C 272.550781 103.847656 273.683594 103.972656 274.25 103.785156 C 275.070312 103.59375 275.890625 103.53125 276.707031 103.46875 C 277.148438 103.46875 277.589844 103.65625 277.652344 104.101562 C 277.777344 104.542969 277.339844 104.859375 276.960938 104.984375 C 276.140625 105.363281 275.320312 105.488281 274.441406 105.488281 Z M 274.441406 105.488281 " fill-opacity="1" fill-rule="nonzero"/><path fill="#ffffff" d="M 49.417969 127.90625 C 49.796875 127.90625 49.984375 128.09375 50.238281 128.285156 C 50.804688 128.789062 51.433594 129.292969 51.9375 129.863281 C 52.253906 130.242188 52.632812 130.683594 52.128906 131.1875 C 51.75 131.566406 51.308594 131.441406 50.929688 131.125 C 50.238281 130.558594 49.605469 129.863281 49.101562 129.105469 C 48.664062 128.597656 48.789062 128.15625 49.417969 127.90625 Z M 49.417969 127.90625 " fill-opacity="1" fill-rule="nonzero"/><path fill="#ffffff" d="M 41.605469 212.011719 C 41.605469 212.515625 41.667969 213.023438 41.605469 213.527344 C 41.542969 213.84375 41.417969 214.160156 40.976562 214.222656 C 40.535156 214.285156 40.347656 213.96875 40.285156 213.652344 C 39.96875 212.582031 40.09375 211.445312 40.222656 210.308594 C 40.222656 210.054688 40.472656 209.929688 40.789062 209.863281 C 41.101562 209.863281 41.292969 209.992188 41.480469 210.242188 C 41.667969 210.875 41.542969 211.445312 41.605469 212.011719 Z M 41.605469 212.011719 " fill-opacity="1" fill-rule="nonzero"/><path fill="#ffffff" d="M 101.894531 29.96875 C 101.769531 30.410156 101.390625 30.851562 100.824219 30.539062 C 100.128906 30.097656 99.5 29.527344 99.25 28.707031 C 99.058594 28.136719 99.3125 27.824219 99.816406 27.757812 C 100.382812 27.695312 101.957031 29.339844 101.894531 29.96875 Z M 101.894531 29.96875 " fill-opacity="1" fill-rule="nonzero"/><path fill="#ffffff" d="M 142.023438 206.898438 C 142.652344 206.898438 143.09375 207.085938 143.15625 207.78125 C 143.21875 208.222656 142.839844 208.539062 142.464844 208.414062 C 141.960938 208.285156 141.203125 208.351562 141.203125 207.527344 C 141.140625 207.023438 141.582031 206.898438 142.023438 206.898438 Z M 142.023438 206.898438 " fill-opacity="1" fill-rule="nonzero"/><path fill="#ffffff" d="M 143.847656 213.84375 C 143.785156 214.285156 143.535156 214.539062 143.15625 214.539062 C 142.714844 214.539062 142.402344 214.285156 142.402344 213.78125 C 142.464844 213.402344 142.714844 213.085938 143.15625 213.148438 C 143.597656 213.210938 143.785156 213.464844 143.847656 213.84375 Z M 143.847656 213.84375 " fill-opacity="1" fill-rule="nonzero"/><path fill="#000000" d="M 189.015625 191.742188 C 190.464844 192.121094 191.789062 192.375 193.050781 192.816406 C 195.066406 193.449219 196.011719 194.835938 195.757812 196.921875 C 195.507812 199.382812 195.507812 201.847656 195.570312 204.246094 C 195.570312 206.011719 194.875 206.707031 193.113281 206.582031 C 192.734375 206.582031 192.417969 206.519531 192.355469 206.140625 C 192.230469 205.761719 192.480469 205.445312 192.859375 205.382812 C 193.929688 205.253906 193.742188 204.496094 193.742188 203.804688 C 193.867188 201.71875 194.058594 199.574219 194.308594 197.488281 C 194.433594 196.289062 194.183594 195.972656 193.050781 196.164062 C 183.160156 197.804688 173.269531 199.195312 163.316406 200.015625 C 158.085938 200.457031 152.859375 201.214844 147.628906 201.78125 C 146.558594 201.910156 146.179688 202.289062 146.242188 203.425781 C 146.433594 205.699219 146.496094 207.972656 146.371094 210.242188 C 146.304688 211.128906 146.621094 211.316406 147.441406 211.191406 C 150.652344 210.75 153.804688 210.242188 157.015625 209.863281 C 162.558594 209.105469 168.101562 208.414062 173.648438 207.71875 C 178.121094 207.148438 182.59375 206.582031 187.066406 206.078125 C 188.261719 205.949219 189.457031 205.699219 190.65625 205.949219 C 190.90625 206.011719 191.410156 205.824219 191.472656 206.328125 C 191.539062 206.835938 191.035156 206.898438 190.71875 206.960938 C 188.765625 207.339844 186.8125 207.71875 184.859375 207.972656 C 176.542969 209.105469 168.230469 210.242188 159.914062 211.378906 C 155.945312 211.949219 151.976562 212.453125 148.007812 212.960938 C 147.441406 213.023438 146.875 213.148438 146.304688 213.339844 C 145.234375 213.652344 144.792969 213.339844 144.730469 212.265625 C 144.667969 211 144.667969 209.675781 144.792969 208.414062 C 144.984375 206.390625 144.921875 204.371094 144.730469 202.289062 C 144.605469 200.773438 144.667969 200.519531 146.117188 200.265625 C 149.457031 199.761719 152.730469 199.382812 156.070312 198.941406 C 162.558594 198.183594 169.109375 197.742188 175.597656 197.046875 C 180.890625 196.480469 186.121094 195.65625 191.410156 195.40625 C 192.167969 195.34375 192.859375 195.214844 193.617188 195.089844 C 193.492188 194.457031 192.859375 194.457031 192.480469 194.332031 C 189.523438 193.449219 186.5625 192.691406 183.535156 192.691406 C 180.828125 192.691406 178.246094 193.511719 175.597656 194.015625 C 167.726562 195.59375 159.789062 196.730469 151.851562 197.929688 C 150.84375 198.121094 149.835938 198.308594 148.761719 198.4375 C 147.3125 198.625 147 198.308594 147 196.921875 C 146.9375 187.070312 146.875 177.21875 146.875 167.371094 C 146.875 159.097656 146.808594 150.824219 147.0625 142.554688 C 147.0625 142.238281 146.875 141.796875 147.378906 141.542969 C 147.753906 142.113281 147.816406 142.679688 147.816406 143.25 C 147.945312 147.921875 148.070312 152.53125 148.132812 157.203125 C 148.320312 169.957031 148.511719 182.714844 148.574219 195.46875 C 148.574219 196.730469 149.015625 196.730469 150.023438 196.605469 C 158.527344 195.214844 167.03125 193.828125 175.472656 192.5 C 180.449219 191.742188 185.425781 191.046875 190.402344 190.289062 C 191.222656 190.164062 192.042969 189.976562 192.859375 190.039062 C 193.867188 190.101562 194.058594 189.53125 194.058594 188.773438 C 194.058594 186.1875 194.183594 183.597656 194.058594 181.070312 C 193.742188 170.90625 193.929688 160.800781 193.804688 150.636719 C 193.742188 145.648438 193.617188 140.660156 193.554688 135.671875 C 193.554688 134.660156 193.300781 134.410156 192.230469 134.535156 C 185.554688 135.292969 178.875 135.925781 172.199219 136.554688 C 164.132812 137.3125 156.132812 138.195312 148.070312 138.765625 C 144.667969 139.019531 141.265625 138.640625 137.863281 138.449219 C 132.636719 138.261719 127.34375 138.007812 122.117188 137.753906 C 113.042969 137.375 103.972656 136.933594 94.902344 136.554688 C 89.863281 136.367188 84.886719 136.175781 79.84375 135.988281 C 72.410156 135.671875 64.914062 135.355469 57.480469 135.039062 C 53.828125 134.914062 50.109375 134.789062 46.457031 134.472656 C 46.140625 134.472656 45.828125 134.410156 45.511719 134.34375 C 45.324219 134.28125 45.070312 134.21875 45.070312 133.964844 C 45.070312 133.652344 45.261719 133.523438 45.511719 133.460938 C 45.828125 133.398438 46.207031 133.460938 46.519531 133.460938 C 53.511719 133.460938 60.503906 133.839844 67.5 134.15625 C 72.410156 134.34375 77.261719 134.535156 82.175781 134.722656 C 89.734375 135.039062 97.359375 135.355469 104.917969 135.609375 C 110.273438 135.796875 115.691406 135.988281 121.042969 136.175781 C 128.605469 136.492188 136.101562 136.746094 143.660156 137.125 C 146.117188 137.25 148.511719 136.683594 150.90625 136.554688 C 156.699219 136.113281 162.558594 135.480469 168.355469 134.976562 C 175.976562 134.28125 183.535156 133.652344 191.160156 133.019531 C 192.292969 132.894531 193.492188 132.894531 194.625 132.894531 C 195.191406 132.894531 195.632812 132.894531 195.570312 132.136719 C 195.570312 131.757812 195.820312 131.503906 196.199219 131.503906 C 196.640625 131.503906 196.828125 131.882812 196.828125 132.261719 C 196.828125 132.703125 196.828125 133.144531 196.828125 133.652344 C 196.765625 134.03125 196.515625 134.34375 196.136719 134.21875 C 194.75 133.523438 195.066406 134.597656 195.066406 135.230469 C 195.066406 149.625 195.066406 164.023438 195.066406 178.355469 C 195.066406 179.113281 195.191406 179.429688 196.074219 179.429688 C 197.523438 179.492188 198.972656 179.746094 200.417969 179.808594 C 200.921875 179.871094 201.429688 179.933594 201.492188 180.441406 C 201.492188 181.007812 200.859375 180.945312 200.546875 181.007812 C 199.035156 181.261719 197.460938 181.199219 195.945312 181.007812 C 195.378906 180.945312 195.066406 180.945312 195.128906 181.640625 C 195.191406 182.019531 195.191406 182.460938 195.128906 182.902344 C 195.066406 183.472656 195.316406 183.660156 195.820312 183.597656 C 196.515625 183.535156 197.207031 183.597656 197.898438 183.851562 C 198.152344 183.914062 198.339844 184.039062 198.339844 184.355469 C 198.339844 184.609375 198.089844 184.734375 197.898438 184.734375 C 197.269531 184.859375 196.703125 185.113281 196.074219 185.050781 C 195.066406 184.988281 195.003906 185.429688 195.066406 186.25 C 195.128906 187.257812 195.066406 188.332031 195.066406 189.34375 C 195.066406 190.039062 194.8125 190.480469 194.058594 190.605469 C 192.480469 190.921875 190.84375 191.363281 189.015625 191.742188 Z M 189.015625 191.742188 " fill-opacity="1" fill-rule="nonzero"/><g clip-path="url(#7c08cf01fc)"><path fill="#000000" d="M 299.703125 201.59375 C 298.566406 197.742188 298.882812 193.953125 298.882812 190.101562 C 298.882812 189.40625 298.695312 189.28125 298.0625 189.28125 C 291.828125 189.089844 285.527344 188.839844 279.289062 188.585938 C 268.519531 188.144531 257.746094 187.636719 246.972656 187.195312 C 238.910156 186.816406 230.847656 186.503906 222.71875 186.125 C 215.476562 185.808594 208.230469 185.492188 200.988281 185.113281 C 200.355469 185.113281 199.851562 184.921875 199.851562 184.230469 C 199.914062 183.535156 200.484375 183.472656 201.050781 183.472656 C 208.734375 183.785156 216.359375 184.101562 224.042969 184.417969 C 228.769531 184.609375 233.492188 184.859375 238.21875 185.050781 C 249.054688 185.554688 259.886719 185.996094 270.785156 186.503906 C 272.425781 186.566406 274.125 186.691406 275.761719 186.691406 C 280.046875 186.816406 284.269531 187.449219 288.550781 187.324219 C 291.070312 187.257812 293.589844 187.511719 296.109375 187.765625 C 299.199219 188.082031 302.09375 187.324219 305.121094 186.945312 C 309.90625 186.3125 314.695312 185.871094 319.417969 185.300781 C 324.394531 184.734375 329.371094 184.417969 334.285156 183.472656 C 336.871094 183.027344 339.578125 182.964844 342.222656 183.027344 C 343.042969 183.027344 343.546875 183.40625 343.800781 184.292969 C 344.492188 186.25 344.933594 188.207031 344.996094 190.226562 C 344.996094 190.796875 345.121094 191.492188 344.304688 191.554688 C 343.484375 191.617188 343.484375 190.859375 343.421875 190.289062 C 343.167969 188.648438 342.980469 187.007812 342.789062 185.367188 C 342.726562 184.671875 342.476562 184.417969 341.71875 184.480469 C 335.671875 185.050781 329.625 185.996094 323.640625 186.691406 C 317.089844 187.449219 310.472656 188.269531 303.921875 189.027344 C 303.417969 189.089844 302.851562 189.152344 302.347656 189.21875 C 300.457031 189.46875 300.394531 189.46875 300.457031 191.425781 C 300.519531 194.519531 300.269531 197.679688 301.152344 200.710938 C 301.339844 201.46875 301.65625 201.59375 302.347656 201.402344 C 311.480469 199.382812 320.554688 197.363281 329.6875 195.40625 C 333.65625 194.519531 337.75 194.140625 341.78125 193.511719 C 342.539062 193.382812 343.296875 192.941406 344.113281 193.699219 C 342.664062 194.457031 341.152344 194.964844 339.640625 195.214844 C 329.625 196.605469 319.796875 199.195312 309.96875 201.339844 C 307.136719 201.972656 304.363281 202.792969 301.464844 202.984375 C 298.441406 203.171875 295.417969 202.855469 292.394531 202.667969 C 287.542969 202.414062 282.628906 202.097656 277.777344 201.78125 C 270.28125 201.339844 262.722656 200.835938 255.226562 200.394531 C 249.429688 200.015625 243.636719 199.699219 237.839844 199.320312 C 230.65625 198.878906 223.476562 198.371094 216.230469 197.867188 C 211.949219 197.617188 207.601562 197.300781 203.316406 197.046875 C 201.679688 196.921875 200.105469 196.859375 198.46875 196.730469 C 197.964844 196.667969 197.269531 196.667969 197.332031 195.910156 C 197.394531 195.152344 198.089844 195.277344 198.59375 195.277344 C 205.398438 195.65625 212.261719 196.035156 219.066406 196.480469 C 223.726562 196.730469 228.328125 197.046875 232.988281 197.300781 C 240.546875 197.742188 248.109375 198.246094 255.667969 198.75 C 261.527344 199.128906 267.320312 199.445312 273.179688 199.824219 C 280.300781 200.265625 287.417969 200.773438 294.535156 201.277344 C 296.109375 201.339844 297.875 201.46875 299.703125 201.59375 Z M 299.703125 201.59375 " fill-opacity="1" fill-rule="nonzero"/></g><path fill="#000000" d="M 143.914062 285.132812 C 147.566406 283.804688 151.09375 282.605469 154.621094 281.34375 C 166.84375 276.988281 179 272.566406 191.285156 268.460938 C 191.914062 268.273438 192.105469 267.957031 192.105469 267.261719 C 191.914062 250.53125 191.851562 233.734375 191.914062 217 C 191.914062 214.664062 192.042969 212.328125 192.167969 210.054688 C 192.167969 209.675781 192.230469 209.296875 192.734375 209.105469 C 192.921875 209.929688 193.113281 210.6875 193.175781 211.507812 C 193.554688 221.671875 193.617188 231.839844 193.679688 242.066406 C 193.742188 250.53125 193.804688 259.054688 193.929688 267.515625 C 193.929688 268.652344 193.492188 269.21875 192.480469 269.597656 C 177.300781 275.40625 161.929688 280.773438 146.621094 286.269531 C 145.359375 286.710938 144.101562 287.34375 142.777344 287.722656 C 141.457031 288.164062 140.070312 287.59375 138.746094 287.40625 C 128.226562 285.953125 117.707031 284.4375 107.121094 282.921875 C 94.648438 281.152344 82.238281 279.324219 69.765625 277.492188 C 60 276.039062 50.175781 274.648438 40.410156 273.199219 C 38.644531 272.945312 36.945312 272.566406 35.179688 272.25 C 34.804688 272.1875 34.363281 272.1875 34.363281 271.683594 C 34.425781 271.113281 34.929688 271.175781 35.371094 271.242188 C 37.828125 271.492188 40.285156 271.746094 42.742188 272.0625 C 48.597656 272.820312 54.457031 273.640625 60.316406 274.460938 C 66.617188 275.34375 72.851562 276.164062 79.152344 277.050781 C 86.019531 277.996094 92.824219 278.945312 99.6875 279.953125 C 106.996094 280.964844 114.367188 282.039062 121.675781 283.113281 C 128.226562 284.058594 134.777344 285.003906 141.328125 285.953125 C 142.464844 286.140625 142.085938 285.320312 142.085938 284.878906 C 142.085938 275.34375 142.023438 265.808594 142.023438 256.339844 C 142.023438 243.960938 142.085938 231.585938 142.085938 219.148438 C 142.085938 218.136719 142.085938 217.125 142.273438 216.179688 C 142.335938 215.925781 142.273438 215.675781 142.652344 215.609375 C 143.09375 215.609375 143.03125 215.925781 143.09375 216.179688 C 143.15625 217.191406 143.28125 218.136719 143.34375 219.148438 C 143.722656 240.742188 143.847656 262.402344 143.914062 283.996094 C 143.914062 284.3125 143.914062 284.628906 143.914062 285.132812 Z M 143.914062 285.132812 " fill-opacity="1" fill-rule="nonzero"/><path fill="#000000" d="M 315.515625 115.277344 C 316.332031 117.234375 316.269531 119.253906 316.332031 121.210938 C 316.710938 134.535156 316.898438 147.859375 316.898438 161.246094 C 316.898438 166.613281 316.898438 171.980469 316.960938 177.347656 C 316.960938 177.976562 317.089844 178.609375 317.089844 179.175781 C 317.089844 179.746094 317.339844 179.871094 317.84375 179.871094 C 322.882812 180 327.925781 180.1875 333.027344 180.378906 C 335.988281 180.503906 339.011719 180.691406 341.972656 180.882812 C 342.222656 180.882812 342.539062 181.007812 342.789062 181.136719 C 342.980469 181.199219 343.167969 181.386719 343.105469 181.578125 C 343.042969 181.765625 342.855469 181.890625 342.664062 181.890625 C 342.097656 182.019531 341.53125 182.019531 340.964844 182.019531 C 333.78125 181.703125 326.539062 181.386719 319.355469 181.136719 C 318.410156 181.070312 317.59375 181.070312 316.648438 181.765625 C 315.640625 182.398438 314.191406 182.398438 312.929688 182.648438 C 307.136719 183.722656 301.339844 184.480469 295.542969 185.238281 C 291.828125 185.746094 288.109375 186.375 284.332031 186.503906 C 277.210938 186.691406 270.21875 185.871094 263.164062 185.492188 C 258.816406 185.300781 254.46875 184.988281 250.125 184.671875 C 242.628906 184.164062 235.128906 183.722656 227.695312 183.21875 C 221.964844 182.839844 216.292969 182.523438 210.5625 182.144531 C 208.484375 182.019531 206.40625 181.828125 204.386719 181.703125 C 203.882812 181.640625 203.378906 181.578125 203.445312 181.007812 C 203.445312 180.378906 204.011719 180.378906 204.453125 180.441406 C 208.105469 180.628906 211.757812 180.882812 215.351562 181.070312 C 222.214844 181.449219 229.082031 181.828125 235.949219 182.207031 C 244.769531 182.714844 253.589844 183.34375 262.34375 183.851562 C 268.898438 184.230469 275.386719 184.609375 281.9375 185.050781 C 281.242188 181.765625 281.558594 178.546875 281.558594 175.324219 C 281.621094 162.445312 281.433594 149.5625 281.371094 136.683594 C 281.308594 130.9375 281.371094 125.191406 281.371094 119.507812 C 281.371094 118.558594 281.496094 117.613281 281.558594 116.664062 C 281.558594 116.351562 281.683594 116.035156 282 116.035156 C 282.316406 116.035156 282.441406 116.414062 282.503906 116.664062 C 282.566406 116.980469 282.566406 117.296875 282.566406 117.675781 C 282.945312 127.589844 283.007812 137.503906 283.132812 147.480469 C 283.257812 157.582031 283.386719 167.683594 283.511719 177.789062 C 283.511719 179.871094 283.132812 181.890625 283.257812 183.976562 C 283.324219 184.734375 283.324219 184.988281 284.140625 184.859375 C 287.859375 184.417969 291.511719 184.101562 295.230469 183.535156 C 301.277344 182.585938 307.324219 181.765625 313.371094 180.882812 C 313.625 180.820312 313.875 180.757812 314.128906 180.757812 C 315.449219 180.757812 315.640625 180.1875 315.515625 178.863281 C 315.261719 176.082031 315.324219 173.304688 315.324219 170.527344 C 315.199219 155.246094 314.820312 139.964844 315.074219 124.621094 C 315.136719 121.652344 314.945312 118.75 315.449219 115.78125 C 315.386719 115.464844 315.449219 115.402344 315.515625 115.277344 Z M 315.515625 115.277344 " fill-opacity="1" fill-rule="nonzero"/><path fill="#000000" d="M 31.023438 197.425781 C 29.574219 196.226562 29.636719 195.34375 31.464844 194.585938 C 35.875 192.628906 40.535156 191.300781 45.132812 189.847656 C 45.511719 189.722656 45.828125 189.660156 46.207031 189.53125 C 46.773438 189.40625 46.898438 189.089844 46.773438 188.523438 C 46.332031 186.125 46.269531 183.660156 46.140625 181.199219 C 45.449219 170.464844 45.449219 159.667969 46.015625 148.933594 C 46.207031 145.835938 46.394531 142.808594 46.582031 139.710938 C 46.582031 139.585938 46.582031 139.460938 46.582031 139.332031 C 46.773438 138.703125 46.710938 137.753906 47.464844 137.820312 C 48.09375 137.882812 47.84375 138.828125 47.78125 139.332031 C 47.402344 146.53125 47.277344 153.667969 47.085938 160.867188 C 46.835938 170.273438 47.402344 179.621094 47.78125 189.027344 C 47.78125 189.34375 47.84375 189.597656 47.90625 189.910156 C 48.285156 192.25 48.285156 192.25 50.679688 192.3125 C 57.230469 192.5625 63.84375 192.816406 70.394531 193.070312 C 77.640625 193.382812 84.886719 193.699219 92.128906 194.078125 C 100.382812 194.457031 108.699219 194.898438 116.949219 195.34375 C 124.886719 195.722656 132.824219 196.164062 140.761719 196.605469 C 141.769531 196.667969 142.839844 196.730469 143.847656 196.792969 C 144.480469 196.859375 145.046875 196.984375 145.046875 197.742188 C 145.046875 198.625 144.351562 198.6875 143.722656 198.625 C 139.566406 198.4375 135.472656 198.246094 131.3125 198.058594 C 126.777344 197.804688 122.304688 197.617188 117.769531 197.363281 C 109.265625 196.921875 100.824219 196.414062 92.320312 195.972656 C 85.515625 195.59375 78.773438 195.277344 71.972656 194.898438 C 65.042969 194.519531 58.113281 194.078125 51.121094 193.636719 C 50.238281 193.574219 49.417969 193.511719 48.535156 193.382812 C 46.773438 193.195312 46.773438 193.132812 46.644531 190.921875 C 41.859375 192.628906 37.132812 194.269531 32.410156 195.972656 C 32.410156 196.101562 32.410156 196.164062 32.410156 196.289062 C 34.234375 196.414062 36.0625 196.542969 37.890625 196.605469 C 45.890625 196.730469 53.890625 196.859375 61.890625 196.984375 C 69.011719 197.109375 76.128906 197.238281 83.308594 197.425781 C 93.894531 197.679688 104.539062 198.058594 115.125 198.6875 C 122.179688 199.066406 129.296875 199.445312 136.289062 200.140625 C 138.496094 200.394531 140.636719 200.644531 142.714844 201.277344 C 143.15625 201.402344 143.660156 201.53125 143.597656 202.097656 C 143.535156 202.792969 142.90625 202.605469 142.527344 202.539062 C 140.070312 202.226562 137.613281 201.71875 135.15625 201.46875 C 131.375 201.023438 127.660156 200.773438 123.878906 200.582031 C 116.570312 200.140625 109.265625 199.699219 101.894531 199.445312 C 94.207031 199.128906 86.585938 198.941406 78.902344 198.75 C 67.5 198.5 56.097656 198.371094 44.695312 198.183594 C 40.914062 198.121094 37.132812 197.929688 33.355469 197.804688 C 32.660156 197.804688 31.84375 197.550781 31.023438 197.425781 Z M 31.023438 197.425781 " fill-opacity="1" fill-rule="nonzero"/><g clip-path="url(#a211d789ee)"><path fill="#000000" d="M 31.023438 197.425781 C 30.960938 199.699219 30.960938 202.035156 30.769531 204.308594 C 30.644531 205.382812 30.960938 205.632812 31.90625 205.699219 C 35.246094 205.886719 38.582031 206.078125 41.984375 206.265625 C 50.742188 206.769531 59.433594 207.214844 68.191406 207.71875 C 73.417969 207.972656 78.648438 208.285156 83.8125 208.539062 C 92.445312 208.980469 101.011719 209.484375 109.640625 209.929688 C 114.808594 210.179688 119.972656 210.433594 125.140625 210.75 C 131.125 211.128906 137.109375 211.570312 143.09375 212.011719 C 143.472656 212.011719 144.101562 212.074219 144.039062 212.582031 C 143.976562 213.023438 143.410156 213.023438 143.03125 213.023438 C 137.992188 212.832031 132.949219 212.707031 127.847656 212.453125 C 122.179688 212.203125 116.507812 211.886719 110.839844 211.570312 C 102.335938 211.128906 93.894531 210.621094 85.390625 210.117188 C 80.160156 209.800781 74.933594 209.550781 69.765625 209.296875 C 62.648438 208.917969 55.527344 208.539062 48.410156 208.160156 C 44.125 207.90625 39.90625 207.78125 35.621094 207.464844 C 34.675781 207.402344 34.867188 207.90625 34.867188 208.414062 C 34.867188 220.410156 34.929688 232.40625 34.929688 244.46875 C 34.929688 251.601562 34.929688 258.738281 34.929688 265.9375 C 34.929688 266.695312 34.992188 267.453125 35.054688 268.148438 C 35.117188 268.839844 34.738281 269.09375 34.234375 269.09375 C 33.730469 269.09375 33.480469 268.652344 33.480469 268.148438 C 33.730469 248.320312 33.226562 228.429688 33.730469 208.601562 C 33.730469 207.527344 33.480469 207.214844 32.472656 207.339844 C 32.03125 207.402344 31.589844 207.339844 31.085938 207.339844 C 29.953125 207.214844 29.257812 206.457031 29.195312 205.320312 C 29.132812 203.109375 29.449219 200.960938 29.828125 198.75 C 29.828125 198.058594 29.953125 197.171875 31.023438 197.425781 Z M 31.023438 197.425781 " fill-opacity="1" fill-rule="nonzero"/></g><path fill="#000000" d="M 96.222656 122.410156 C 106.242188 122.789062 116.257812 123.167969 126.335938 123.484375 C 133.015625 123.738281 139.691406 123.988281 146.371094 124.242188 C 147.566406 124.304688 148.449219 125.125 148.386719 126.328125 C 148.257812 129.105469 148.070312 131.882812 147.882812 134.660156 C 147.882812 134.851562 147.753906 135.039062 147.691406 135.230469 C 147.628906 135.609375 147.503906 135.925781 147.0625 135.859375 C 146.683594 135.796875 146.621094 135.480469 146.558594 135.101562 C 146.304688 132.515625 146.179688 129.863281 146.304688 127.273438 C 146.371094 126.328125 146.179688 126.074219 145.234375 126.011719 C 134.527344 125.632812 123.753906 125.125 113.042969 124.683594 C 101.957031 124.242188 90.871094 123.738281 79.71875 123.296875 C 72.914062 122.980469 66.050781 122.789062 59.246094 122.472656 C 55.214844 122.285156 51.121094 122.03125 47.085938 121.78125 C 46.332031 121.71875 46.078125 121.84375 46.078125 122.664062 C 46.015625 125.757812 45.890625 128.789062 45.765625 131.882812 C 45.765625 132.453125 45.703125 133.019531 44.945312 133.019531 C 44.253906 133.019531 44.316406 132.453125 44.316406 131.882812 C 44.378906 128.410156 44.695312 125 45.070312 121.589844 C 45.132812 120.707031 45.636719 120.769531 46.269531 120.707031 C 51.246094 120.582031 56.222656 120.894531 61.199219 121.085938 C 66.679688 121.210938 72.222656 121.527344 77.703125 121.71875 C 83.878906 121.96875 90.050781 122.160156 96.222656 122.410156 Z M 96.222656 122.410156 " fill-opacity="1" fill-rule="nonzero"/><path fill="#000000" d="M 202.4375 267.578125 C 211.191406 267.957031 220.199219 268.398438 229.210938 268.839844 C 235.128906 269.09375 241.050781 269.347656 246.972656 269.660156 C 255.039062 270.039062 263.039062 270.417969 271.101562 270.863281 C 276.582031 271.113281 282.0625 271.429688 287.480469 271.683594 C 291.070312 271.871094 294.597656 272 298.191406 272.1875 C 298.882812 272.1875 299.511719 272.378906 299.449219 273.199219 C 299.386719 274.082031 298.695312 274.082031 298.0625 274.019531 C 291.699219 273.703125 285.339844 273.449219 278.914062 273.136719 C 273.179688 272.820312 267.382812 272.566406 261.652344 272.25 C 252.265625 271.746094 242.941406 271.304688 233.554688 270.796875 C 226.753906 270.417969 219.886719 270.105469 213.082031 269.726562 C 208.355469 269.472656 203.570312 269.09375 198.84375 268.777344 C 198.402344 268.777344 197.773438 268.839844 197.835938 268.148438 C 197.898438 267.453125 198.53125 267.640625 198.90625 267.640625 C 199.980469 267.578125 201.050781 267.578125 202.4375 267.578125 Z M 202.4375 267.578125 " fill-opacity="1" fill-rule="nonzero"/><path fill="#000000" d="M 342.035156 219.652344 C 342.222656 231.398438 342.351562 239.921875 342.414062 248.382812 C 342.414062 249.328125 342.285156 250.277344 342.160156 251.222656 C 342.035156 252.046875 341.46875 252.613281 340.773438 253.054688 C 338.128906 254.949219 335.292969 256.402344 332.460938 257.980469 C 324.019531 262.714844 315.261719 266.695312 306.695312 271.050781 C 306.566406 271.113281 306.378906 271.175781 306.253906 271.242188 C 305.9375 271.429688 305.558594 271.621094 305.371094 271.242188 C 305.121094 270.863281 305.496094 270.609375 305.875 270.417969 C 308.332031 268.777344 310.914062 267.453125 313.5625 266.1875 C 321.5 262.464844 329.246094 258.296875 336.871094 253.9375 C 338.066406 253.246094 339.199219 252.488281 340.269531 251.730469 C 340.710938 251.476562 340.902344 251.097656 340.902344 250.464844 C 340.773438 236.449219 340.144531 222.429688 340.710938 208.351562 C 340.902344 204.496094 340.773438 200.644531 341.40625 196.792969 C 341.46875 196.542969 341.40625 196.289062 341.53125 196.035156 C 341.59375 195.847656 341.78125 195.53125 342.035156 195.59375 C 342.160156 195.65625 342.351562 195.910156 342.351562 196.101562 C 342.414062 196.542969 342.414062 196.984375 342.414062 197.488281 C 342.285156 205.949219 342.160156 214.472656 342.035156 219.652344 Z M 342.035156 219.652344 " fill-opacity="1" fill-rule="nonzero"/><path fill="#000000" d="M 313.371094 113.699219 C 305.875 113.253906 298.0625 112.75 290.1875 112.246094 C 289.054688 112.183594 287.984375 111.992188 286.851562 111.804688 C 286.535156 111.738281 286.09375 111.804688 286.15625 111.363281 C 286.21875 110.984375 286.535156 110.792969 286.976562 110.730469 C 287.984375 110.605469 288.929688 110.605469 289.9375 110.667969 C 299.199219 110.855469 308.457031 111.804688 317.71875 111.804688 C 318.726562 111.804688 319.042969 111.550781 319.042969 110.539062 C 319.042969 108.203125 318.914062 105.867188 319.230469 103.59375 C 319.355469 102.710938 319.042969 102.457031 318.222656 102.394531 C 314.820312 102.140625 311.480469 101.890625 308.082031 101.574219 C 303.417969 101.195312 298.757812 100.816406 294.09375 100.375 C 292.269531 100.183594 290.378906 100.058594 288.550781 99.871094 C 288.109375 99.871094 287.734375 99.742188 287.734375 99.363281 C 287.734375 98.796875 288.300781 98.984375 288.613281 98.984375 C 292.960938 98.921875 297.308594 99.363281 301.65625 99.679688 C 305.183594 99.871094 308.648438 100.183594 312.175781 100.375 C 314.632812 100.5 317.089844 100.691406 319.546875 101.003906 C 320.363281 101.132812 320.554688 101.636719 320.617188 102.269531 C 320.867188 105.488281 320.867188 108.773438 320.804688 111.992188 C 320.804688 113.191406 320.050781 113.699219 318.976562 113.699219 C 317.214844 113.761719 315.515625 113.699219 313.371094 113.699219 Z M 313.371094 113.699219 " fill-opacity="1" fill-rule="nonzero"/><path fill="#000000" d="M 121.234375 287.53125 C 118.777344 287.722656 116.761719 287.40625 114.746094 287.277344 C 107.25 286.773438 99.816406 286.015625 92.382812 285.132812 C 85.515625 284.3125 78.648438 283.425781 71.78125 282.542969 C 69.011719 282.164062 66.238281 281.976562 63.53125 281.40625 C 62.710938 281.21875 61.890625 280.902344 61.074219 280.648438 C 60.820312 280.585938 60.632812 280.523438 60.632812 280.269531 C 60.632812 280.015625 60.882812 279.890625 61.136719 279.890625 C 61.261719 279.890625 61.386719 279.890625 61.511719 279.890625 C 68.191406 280.082031 74.804688 280.710938 81.421875 281.46875 C 89.105469 282.289062 96.792969 283.300781 104.476562 284.375 C 109.515625 285.070312 114.621094 285.699219 119.597656 286.835938 C 120.101562 286.964844 120.539062 287.089844 121.234375 287.53125 Z M 121.234375 287.53125 " fill-opacity="1" fill-rule="nonzero"/><path fill="#010101" d="M 255.039062 274.839844 C 253.527344 274.902344 251.949219 275.027344 250.4375 275.09375 C 238.40625 275.21875 226.375 274.839844 214.40625 274.269531 C 208.167969 274.019531 201.933594 273.703125 195.632812 273.199219 C 195.003906 273.136719 194.246094 273.136719 194.246094 272.3125 C 194.183594 271.429688 195.003906 271.367188 195.695312 271.367188 C 201.492188 271.242188 207.222656 271.683594 212.957031 272 C 219.066406 272.378906 225.175781 272.757812 231.351562 273.136719 C 238.59375 273.515625 245.839844 274.019531 253.085938 274.207031 C 253.652344 274.207031 254.40625 274.269531 255.039062 274.839844 Z M 255.039062 274.839844 " fill-opacity="1" fill-rule="nonzero"/><path fill="#000000" d="M 300.144531 226.914062 C 299.703125 236.195312 300.015625 244.785156 300.457031 253.308594 C 300.773438 259.054688 300.710938 264.863281 301.589844 270.609375 C 301.71875 271.367188 301.84375 271.871094 302.664062 271.933594 C 302.914062 271.933594 303.167969 272.125 303.167969 272.441406 C 303.167969 272.820312 302.789062 272.757812 302.597656 272.820312 C 301.464844 273.261719 300.332031 272.566406 300.144531 271.367188 C 299.640625 267.578125 299.386719 263.789062 299.199219 259.9375 C 298.628906 248.886719 298.191406 237.835938 298.503906 226.789062 C 298.628906 220.851562 298.820312 214.917969 299.007812 208.980469 C 299.007812 208.097656 299.199219 207.148438 299.386719 206.265625 C 299.449219 205.949219 299.449219 205.382812 299.953125 205.507812 C 300.332031 205.570312 300.269531 206.011719 300.269531 206.390625 C 300.269531 208.035156 300.269531 209.738281 300.269531 211.378906 C 300.144531 216.746094 300.144531 222.179688 300.144531 226.914062 Z M 300.144531 226.914062 " fill-opacity="1" fill-rule="nonzero"/><path fill="#010101" d="M 197.019531 126.578125 C 197.019531 127.464844 197.019531 128.410156 197.019531 129.292969 C 197.019531 130.050781 196.640625 130.683594 195.882812 130.683594 C 195.003906 130.683594 194.9375 129.988281 194.9375 129.230469 C 194.9375 127.398438 194.8125 125.570312 195.066406 123.738281 C 195.191406 122.851562 194.6875 122.980469 194.183594 123.042969 C 191.160156 123.230469 188.136719 123.421875 185.113281 123.609375 C 180.386719 123.925781 175.597656 124.179688 170.875 124.496094 C 166.277344 124.8125 161.675781 125.125 157.140625 125.441406 C 155.25 125.570312 153.363281 125.632812 151.410156 125.757812 C 151.03125 125.757812 150.464844 125.820312 150.464844 125.253906 C 150.464844 124.8125 150.96875 124.8125 151.347656 124.746094 C 156.449219 124.304688 161.550781 123.800781 166.71875 123.675781 C 169.300781 123.609375 171.882812 123.105469 174.464844 122.980469 C 176.355469 122.851562 178.246094 122.726562 180.136719 122.601562 C 184.921875 122.347656 189.648438 121.464844 194.5 121.527344 C 196.136719 121.527344 196.828125 122.03125 196.953125 123.738281 C 197.019531 124.683594 196.953125 125.632812 196.953125 126.578125 C 196.953125 126.578125 196.953125 126.578125 197.019531 126.578125 Z M 197.019531 126.578125 " fill-opacity="1" fill-rule="nonzero"/><path fill="#000000" d="M 327.796875 203.550781 C 327.925781 204.875 327.167969 205.699219 325.78125 205.949219 C 321.875 206.707031 317.90625 207.402344 313.9375 208.160156 C 313.75 208.222656 313.496094 208.222656 313.308594 208.222656 C 312.363281 208.222656 311.546875 207.84375 311.417969 206.835938 C 311.292969 205.886719 311.859375 205.253906 312.742188 205.003906 C 314.570312 204.433594 316.457031 203.867188 318.347656 203.425781 C 320.929688 202.855469 323.515625 202.414062 326.160156 201.972656 C 327.484375 201.65625 327.925781 202.160156 327.796875 203.550781 Z M 327.796875 203.550781 " fill-opacity="1" fill-rule="nonzero"/><path fill="#020202" d="M 96.664062 48.535156 C 97.167969 48.785156 97.042969 49.101562 97.105469 49.417969 C 97.296875 53.207031 97.484375 57.058594 97.546875 60.847656 C 97.800781 74.925781 98.050781 89.007812 98.304688 103.089844 C 98.304688 103.277344 98.304688 103.40625 98.304688 103.59375 C 98.242188 104.101562 98.554688 104.859375 97.800781 104.859375 C 97.359375 104.859375 97.546875 104.101562 97.546875 103.65625 C 97.105469 95.890625 96.980469 88.125 96.855469 80.359375 C 96.664062 70.632812 96.351562 60.910156 96.414062 51.1875 C 96.414062 50.429688 96.476562 49.480469 96.664062 48.535156 Z M 96.664062 48.535156 " fill-opacity="1" fill-rule="nonzero"/><path fill="#000000" d="M 161.425781 219.148438 C 160.796875 219.148438 160.292969 219.210938 159.789062 219.148438 C 158.90625 219.019531 158.277344 218.578125 158.277344 217.632812 C 158.210938 216.746094 158.78125 216.179688 159.535156 216.054688 C 161.109375 215.675781 162.683594 215.421875 164.261719 215.167969 C 166.71875 214.726562 169.171875 214.285156 171.566406 213.90625 C 172.070312 213.84375 172.636719 213.71875 173.140625 214.03125 C 173.898438 214.476562 174.527344 215.042969 174.402344 215.988281 C 174.277344 217 173.582031 217.441406 172.636719 217.570312 C 168.859375 218.074219 165.078125 218.640625 161.425781 219.148438 Z M 161.425781 219.148438 " fill-opacity="1" fill-rule="nonzero"/><path fill="#010101" d="M 301.023438 117.105469 C 302.726562 117.042969 304.425781 117.105469 306.128906 117.296875 C 307.828125 117.421875 308.585938 118.054688 308.457031 119.128906 C 308.332031 120.582031 307.449219 121.210938 305.8125 121.023438 C 302.597656 120.707031 299.386719 120.707031 296.175781 120.582031 C 294.851562 120.515625 294.03125 119.824219 294.03125 118.8125 C 294.03125 117.863281 294.851562 117.171875 296.109375 117.105469 C 297.6875 117.042969 299.386719 117.105469 301.023438 117.105469 Z M 301.023438 117.105469 " fill-opacity="1" fill-rule="nonzero"/><path fill="#010101" d="M 168.859375 144.765625 C 168.039062 144.765625 167.285156 144.765625 166.71875 144.007812 C 166.023438 142.996094 166.589844 141.796875 167.914062 141.480469 C 170.433594 140.914062 172.953125 140.46875 175.472656 140.21875 C 176.796875 140.089844 178.121094 140.027344 179.441406 139.902344 C 180.324219 139.839844 181.015625 140.089844 181.207031 141.039062 C 181.394531 142.050781 180.765625 142.617188 179.882812 142.871094 C 177.046875 143.691406 174.152344 143.945312 171.253906 144.449219 C 170.496094 144.574219 169.679688 144.636719 168.859375 144.765625 Z M 168.859375 144.765625 " fill-opacity="1" fill-rule="nonzero"/><path fill="#010101" d="M 44.695312 150.761719 C 44.125 161.558594 44.316406 172.292969 44.503906 183.09375 C 43.621094 181.957031 43.496094 180.628906 43.371094 179.367188 C 42.425781 171.851562 42.929688 164.339844 43.371094 156.886719 C 43.496094 154.929688 43.8125 153.035156 44.0625 151.140625 C 44.125 150.890625 44.125 150.699219 44.695312 150.761719 Z M 44.695312 150.761719 " fill-opacity="1" fill-rule="nonzero"/><path fill="#030303" d="M 31.527344 220.15625 C 31.78125 230.765625 31.589844 241.246094 31.464844 251.792969 C 30.898438 250.910156 30.707031 249.960938 30.644531 248.382812 C 30.332031 241.753906 30.332031 235.1875 30.457031 228.554688 C 30.519531 226.09375 30.769531 223.566406 30.898438 221.105469 C 30.898438 220.726562 31.023438 220.472656 31.527344 220.15625 Z M 31.527344 220.15625 " fill-opacity="1" fill-rule="nonzero"/><path fill="#010101" d="M 176.671875 29.023438 C 178.496094 29.210938 180.261719 29.402344 182.089844 29.589844 C 182.96875 29.71875 183.789062 30.097656 183.664062 31.167969 C 183.535156 32.117188 182.78125 32.558594 181.835938 32.433594 C 179.378906 32.179688 176.859375 32.242188 174.402344 32.179688 C 173.078125 32.117188 172.324219 31.421875 172.386719 30.476562 C 172.449219 29.527344 173.269531 28.960938 174.589844 28.960938 C 175.222656 28.960938 175.914062 29.023438 176.671875 29.023438 Z M 176.671875 29.023438 " fill-opacity="1" fill-rule="nonzero"/><path fill="#010101" d="M 44.0625 122.285156 C 44.0625 125 44.0625 127.714844 44.0625 130.429688 C 44.0625 130.871094 43.9375 131.503906 43.246094 131.503906 C 42.488281 131.503906 42.613281 130.9375 42.550781 130.429688 C 42.425781 127.90625 42.867188 125.378906 43.433594 122.917969 C 43.496094 122.664062 43.6875 122.476562 43.8125 122.222656 C 43.875 122.285156 44 122.285156 44.0625 122.285156 Z M 44.0625 122.285156 " fill-opacity="1" fill-rule="nonzero"/><path fill="#080808" d="M 284.960938 97.722656 C 285.84375 97.847656 286.15625 98.417969 286.21875 99.175781 C 286.285156 99.742188 285.96875 100.058594 285.464844 100.058594 C 284.707031 99.996094 284.332031 99.492188 284.203125 98.796875 C 284.140625 98.164062 284.457031 97.847656 284.960938 97.722656 Z M 284.960938 97.722656 " fill-opacity="1" fill-rule="nonzero"/><path fill="#000000" d="M 284.457031 111.234375 C 283.890625 107.445312 284.203125 103.53125 283.636719 99.742188 C 283.511719 98.734375 283.257812 98.480469 282.378906 98.542969 C 274.1875 98.921875 265.9375 98.796875 257.746094 98.667969 C 243.636719 98.417969 229.585938 98.921875 215.476562 98.859375 C 207.285156 98.796875 199.035156 98.796875 190.84375 98.859375 C 189.960938 98.859375 190.089844 98.417969 190.089844 97.847656 C 190.027344 92.480469 189.960938 87.113281 189.835938 81.746094 C 189.523438 66.023438 189.269531 50.238281 188.953125 34.515625 C 188.890625 32.179688 188.765625 29.78125 188.703125 27.445312 C 187.503906 27.128906 187.253906 27.316406 187.316406 28.707031 C 187.378906 37.292969 187.441406 45.882812 187.570312 54.53125 C 187.882812 72.527344 188.199219 90.523438 188.511719 108.519531 C 188.578125 111.488281 188.953125 114.457031 188.765625 117.484375 C 188.640625 119.632812 188.511719 119.695312 186.371094 119.824219 C 186.183594 119.824219 186.058594 119.824219 185.867188 119.824219 C 182.402344 119.824219 179 120.136719 175.535156 120.265625 C 173.207031 120.390625 170.8125 120.390625 168.417969 120.328125 C 166.84375 120.328125 166.214844 119.378906 166.464844 117.863281 C 166.589844 117.105469 166.78125 116.285156 166.78125 115.527344 C 166.90625 86.796875 167.222656 58.066406 167.09375 29.402344 C 167.09375 28.707031 166.96875 28.011719 166.90625 27.316406 C 166.90625 26.9375 166.84375 26.558594 166.402344 26.621094 C 166.023438 26.621094 165.898438 27 165.898438 27.378906 C 165.835938 28.769531 165.710938 30.097656 165.644531 31.484375 C 165.457031 52.449219 165.269531 73.347656 165.140625 94.3125 C 165.078125 102.269531 165.015625 110.160156 165.015625 118.117188 C 165.015625 119.191406 164.511719 119.128906 163.820312 119.066406 C 152.417969 119 141.015625 118.9375 129.613281 118.875 C 120.605469 118.8125 111.59375 118.8125 102.585938 118.8125 C 101.640625 118.8125 101.390625 118.558594 101.453125 117.675781 C 101.515625 114.769531 101.515625 111.867188 101.453125 108.960938 C 101.136719 93.808594 100.824219 78.652344 100.507812 63.433594 C 100.320312 54.660156 100.003906 45.820312 99.753906 37.042969 C 99.753906 36.472656 99.625 35.96875 99.5625 35.464844 C 99.5 35.148438 99.375 34.894531 98.996094 34.894531 C 98.679688 34.894531 98.492188 35.148438 98.429688 35.464844 C 98.367188 35.96875 98.304688 36.535156 98.304688 37.042969 C 98.429688 48.660156 98.554688 60.214844 98.746094 71.832031 C 99.058594 87.050781 99.375 102.332031 99.753906 117.550781 C 99.753906 118.621094 99.5 118.8125 98.492188 118.8125 C 84.949219 118.75 71.339844 118.75 57.796875 118.8125 C 55.90625 118.8125 53.953125 118.6875 52.0625 119.066406 C 51.496094 119.191406 50.488281 118.75 50.550781 119.570312 C 50.550781 120.136719 51.625 120.074219 52.253906 120.136719 C 60.570312 120.582031 68.820312 120.515625 77.136719 120.582031 C 103.785156 120.769531 130.367188 120.894531 157.015625 121.148438 C 159.976562 121.148438 163.0625 120.390625 166.023438 121.84375 C 166.96875 122.285156 168.230469 122.160156 169.363281 122.160156 C 173.140625 122.097656 176.984375 122.097656 180.765625 121.90625 C 183.347656 121.78125 185.929688 121.339844 188.511719 121.023438 C 189.269531 120.960938 189.898438 120.582031 189.960938 119.886719 C 190.089844 119.191406 190.339844 118.558594 190.277344 117.800781 C 190.214844 115.972656 190.277344 114.140625 190.089844 112.308594 C 190.027344 111.171875 190.53125 110.917969 191.539062 110.917969 C 194.5 110.984375 197.394531 110.917969 200.355469 110.984375 C 222.71875 111.488281 245.019531 111.992188 267.382812 112.496094 C 272.738281 112.625 278.09375 112.8125 283.386719 112.941406 C 284.332031 112.75 284.582031 112.117188 284.457031 111.234375 Z M 282.441406 110.539062 C 281.8125 111.046875 280.425781 110.605469 279.417969 110.605469 C 257.496094 110.160156 235.570312 109.71875 213.648438 109.277344 C 207.851562 109.152344 202.058594 109.023438 196.261719 108.898438 C 194.5625 108.835938 192.859375 108.835938 191.160156 108.898438 C 190.464844 108.898438 190.089844 108.835938 190.152344 107.953125 C 190.277344 105.804688 190.027344 103.65625 189.898438 101.511719 C 189.835938 100.691406 190.027344 100.375 190.96875 100.375 C 205.585938 100.4375 220.136719 100.375 234.753906 100.375 C 234.753906 100.375 234.753906 100.375 234.753906 100.3125 C 248.359375 100.3125 262.03125 100.3125 275.636719 100.3125 C 277.527344 100.3125 279.355469 100.25 281.242188 100.058594 C 282.566406 99.933594 282.820312 100.5 282.753906 101.636719 C 282.691406 103.59375 282.628906 105.550781 282.566406 107.507812 C 282.503906 108.519531 283.195312 109.910156 282.441406 110.539062 Z M 282.441406 110.539062 " fill-opacity="1" fill-rule="nonzero"/><g clip-path="url(#a1f7c4a0e0)"><path fill="#000000" d="M 190.027344 19.046875 C 190.089844 17.71875 189.585938 17.277344 188.386719 17.023438 C 182.214844 15.699219 176.039062 14.183594 169.742188 13.109375 C 168.101562 12.859375 166.464844 12.164062 164.765625 12.289062 C 163 12.414062 161.300781 12.859375 159.535156 13.109375 C 154.308594 13.996094 149.140625 14.878906 143.914062 15.699219 C 138.621094 16.582031 133.328125 17.402344 128.039062 18.289062 C 122.179688 19.234375 116.320312 20.183594 110.460938 21.191406 C 106.304688 21.886719 102.082031 22.707031 97.925781 23.402344 C 97.042969 23.527344 96.664062 24.035156 96.664062 24.917969 C 96.601562 27.191406 96.351562 29.464844 96.414062 31.738281 C 96.476562 33.632812 96.664062 33.820312 98.492188 33.503906 C 101.832031 33 105.234375 32.558594 108.570312 32.117188 C 114.367188 31.296875 120.226562 30.539062 126.023438 29.71875 C 131.3125 28.960938 136.542969 28.074219 141.832031 27.378906 C 148.007812 26.621094 154.117188 25.613281 160.226562 24.730469 C 162.496094 24.414062 164.765625 23.464844 167.15625 24.160156 C 168.230469 24.476562 169.363281 24.539062 170.433594 24.664062 C 174.214844 25.109375 177.992188 25.421875 181.710938 26.054688 C 183.601562 26.371094 185.554688 26.433594 187.503906 26.621094 C 187.757812 26.621094 188.136719 26.75 188.136719 26.308594 C 188.136719 25.929688 187.820312 25.863281 187.570312 25.800781 C 187.316406 25.738281 187.066406 25.675781 186.8125 25.613281 C 180.136719 24.730469 173.519531 23.402344 166.84375 22.835938 C 166.402344 22.769531 166.148438 22.644531 166.148438 22.203125 C 166.214844 19.296875 166.148438 16.394531 165.898438 13.425781 C 166.96875 13.679688 167.914062 13.929688 168.859375 14.121094 C 175.160156 15.320312 181.457031 16.644531 187.695312 18.160156 C 188.386719 18.351562 188.640625 18.539062 188.578125 19.363281 C 188.511719 22.011719 187.945312 24.601562 188.511719 27.253906 C 189.585938 27.757812 189.773438 27.632812 189.835938 26.496094 C 189.960938 24.097656 189.898438 21.570312 190.027344 19.046875 Z M 164.449219 22.835938 C 161.992188 23.148438 159.535156 23.402344 157.078125 23.71875 C 151.347656 24.476562 145.613281 25.234375 139.878906 26.054688 C 133.769531 26.9375 127.660156 27.824219 121.613281 28.707031 C 115.125 29.652344 108.632812 30.664062 102.144531 31.609375 C 100.949219 31.800781 99.6875 31.988281 98.492188 32.179688 C 97.800781 32.304688 97.671875 32.054688 97.671875 31.421875 C 97.863281 29.339844 97.988281 27.253906 98.050781 25.234375 C 98.050781 24.601562 98.304688 24.539062 98.871094 24.414062 C 102.335938 23.84375 105.800781 23.339844 109.265625 22.707031 C 115.4375 21.699219 121.613281 20.625 127.785156 19.550781 C 133.328125 18.605469 138.871094 17.65625 144.480469 16.710938 C 150.777344 15.636719 157.078125 14.5625 163.316406 13.488281 C 163.820312 13.425781 164.261719 13.363281 164.699219 13.300781 C 165.394531 16.265625 164.828125 19.234375 165.269531 22.203125 C 165.332031 22.960938 164.765625 22.769531 164.449219 22.835938 Z M 164.449219 22.835938 " fill-opacity="1" fill-rule="nonzero"/></g></svg>