<svg xmlns="http://www.w3.org/2000/svg" xmlns:xlink="http://www.w3.org/1999/xlink" width="2000" zoomAndPan="magnify" viewBox="0 0 1500 1499.999933" height="2000" preserveAspectRatio="xMidYMid meet" version="1.0"><defs><g/><clipPath id="8836d04f7b"><path d="M 203.476562 356 L 540 356 L 540 531 L 203.476562 531 Z M 203.476562 356 " clip-rule="nonzero"/></clipPath><clipPath id="0c6de07cef"><path d="M 957 387 L 1296.226562 387 L 1296.226562 562 L 957 562 Z M 957 387 " clip-rule="nonzero"/></clipPath><clipPath id="48f90de9bc"><path d="M 811 182.386719 L 907 182.386719 L 907 235 L 811 235 Z M 811 182.386719 " clip-rule="nonzero"/></clipPath></defs><g fill="#e31b23" fill-opacity="1"><g transform="translate(149.160285, 872.407944)"><g><path d="M 187.796875 -119.6875 C 183.472656 -124.007812 179.472656 -128.765625 175.796875 -133.953125 C 172.117188 -139.148438 168.984375 -144.554688 166.390625 -150.171875 C 163.796875 -155.796875 161.742188 -161.472656 160.234375 -167.203125 C 158.722656 -172.929688 157.96875 -178.609375 157.96875 -184.234375 C 157.96875 -195.691406 160.398438 -206.285156 165.265625 -216.015625 C 170.128906 -225.753906 177.640625 -233.757812 187.796875 -240.03125 Z M 15.5625 -107.359375 C 19.894531 -103.035156 23.894531 -98.28125 27.5625 -93.09375 C 31.238281 -87.90625 34.375 -82.5 36.96875 -76.875 C 39.570312 -71.25 41.628906 -65.515625 43.140625 -59.671875 C 44.648438 -53.835938 45.40625 -48.21875 45.40625 -42.8125 C 45.40625 -31.351562 42.972656 -20.757812 38.109375 -11.03125 C 33.242188 -1.300781 25.726562 6.695312 15.5625 12.96875 Z M 15.5625 -239.703125 L 187.796875 -116.765625 L 187.796875 12.96875 L 15.5625 -109.953125 Z M 15.5625 -239.703125 "/></g></g></g><g fill="#e31b23" fill-opacity="1"><g transform="translate(352.502014, 872.407944)"><g><path d="M 86.609375 -113.53125 C 86.609375 -96.65625 87.90625 -82 90.5 -69.5625 C 93.09375 -57.132812 96.332031 -46.429688 100.21875 -37.453125 C 104.113281 -28.484375 108.382812 -21.078125 113.03125 -15.234375 C 117.6875 -9.398438 122.175781 -4.644531 126.5 -0.96875 C 130.601562 -4.644531 135.035156 -9.347656 139.796875 -15.078125 C 144.554688 -20.804688 148.878906 -28.15625 152.765625 -37.125 C 156.660156 -46.101562 159.90625 -56.8125 162.5 -69.25 C 165.09375 -81.6875 166.390625 -96.445312 166.390625 -113.53125 C 166.390625 -130.613281 165.09375 -145.425781 162.5 -157.96875 C 159.90625 -170.507812 156.660156 -181.210938 152.765625 -190.078125 C 148.878906 -198.941406 144.609375 -206.238281 139.953125 -211.96875 C 135.304688 -217.695312 130.820312 -222.398438 126.5 -226.078125 C 122.175781 -222.398438 117.6875 -217.640625 113.03125 -211.796875 C 108.382812 -205.960938 104.113281 -198.554688 100.21875 -189.578125 C 96.332031 -180.609375 93.09375 -169.90625 90.5 -157.46875 C 87.90625 -145.039062 86.609375 -130.394531 86.609375 -113.53125 Z M 9.078125 -113.53125 C 9.078125 -129.75 12.160156 -144.992188 18.328125 -159.265625 C 24.492188 -173.535156 32.875 -185.96875 43.46875 -196.5625 C 54.0625 -207.15625 66.492188 -215.53125 80.765625 -221.6875 C 95.035156 -227.851562 110.28125 -230.9375 126.5 -230.9375 C 142.71875 -230.9375 157.960938 -227.851562 172.234375 -221.6875 C 186.503906 -215.53125 198.9375 -207.15625 209.53125 -196.5625 C 220.132812 -185.96875 228.515625 -173.535156 234.671875 -159.265625 C 240.835938 -144.992188 243.921875 -129.75 243.921875 -113.53125 C 243.921875 -97.3125 240.835938 -82.066406 234.671875 -67.796875 C 228.515625 -53.523438 220.132812 -41.085938 209.53125 -30.484375 C 198.9375 -19.890625 186.503906 -11.507812 172.234375 -5.34375 C 157.960938 0.8125 142.71875 3.890625 126.5 3.890625 C 110.28125 3.890625 95.035156 0.8125 80.765625 -5.34375 C 66.492188 -11.507812 54.0625 -19.890625 43.46875 -30.484375 C 32.875 -41.085938 24.492188 -53.523438 18.328125 -67.796875 C 12.160156 -82.066406 9.078125 -97.3125 9.078125 -113.53125 Z M 9.078125 -113.53125 "/></g></g></g><g fill="#e31b23" fill-opacity="1"><g transform="translate(605.463048, 872.407944)"><g><path d="M 29.1875 -167.046875 C 34.8125 -169.203125 39.835938 -171.628906 44.265625 -174.328125 C 48.703125 -177.035156 52.597656 -179.6875 55.953125 -182.28125 C 59.304688 -184.882812 62.0625 -187.320312 64.21875 -189.59375 C 66.382812 -191.863281 68.113281 -193.753906 69.40625 -195.265625 C 75.03125 -201.535156 79.734375 -208.671875 83.515625 -216.671875 C 87.304688 -224.671875 90.175781 -232.457031 92.125 -240.03125 L 152.125 -101.53125 L 227.046875 -240.03125 L 284.140625 0 L 195.59375 0 L 170.609375 -103.796875 L 107.359375 12.96875 Z M 33.734375 -146.609375 C 35.242188 -142.710938 36.644531 -138.492188 37.9375 -133.953125 C 39.238281 -129.421875 40.429688 -125.316406 41.515625 -121.640625 C 43.023438 -115.796875 44.484375 -109.035156 45.890625 -101.359375 C 47.296875 -93.679688 48 -86.382812 48 -79.46875 C 48 -74.488281 47.726562 -69.242188 47.1875 -63.734375 C 46.65625 -58.222656 45.789062 -52.65625 44.59375 -47.03125 C 43.40625 -41.40625 41.890625 -36 40.046875 -30.8125 C 38.210938 -25.625 36.109375 -21.082031 33.734375 -17.1875 C 30.054688 -11.132812 25.082031 -5.40625 18.8125 0 C 12.539062 5.40625 4.972656 9.726562 -3.890625 12.96875 Z M 33.734375 -146.609375 "/></g></g></g><g fill="#e31b23" fill-opacity="1"><g transform="translate(892.800853, 872.407944)"><g><path d="M 72.984375 -16.21875 C 70.171875 -19.894531 67.035156 -23.570312 63.578125 -27.25 C 60.117188 -30.925781 56.222656 -34.382812 51.890625 -37.625 C 56.222656 -40.65625 60.117188 -43.953125 63.578125 -47.515625 C 67.035156 -51.085938 70.171875 -54.816406 72.984375 -58.703125 C 75.796875 -54.378906 78.929688 -50.488281 82.390625 -47.03125 C 85.847656 -43.570312 89.738281 -40.4375 94.0625 -37.625 C 86.0625 -32.4375 79.035156 -25.300781 72.984375 -16.21875 Z M 115.46875 0 L 57.734375 -130.71875 L 106.390625 -240.03125 L 213.109375 0 Z M 55.796875 -126.5 C 56.222656 -120.226562 56.597656 -114.171875 56.921875 -108.328125 C 57.242188 -102.492188 57.40625 -96.117188 57.40625 -89.203125 C 57.40625 -87.253906 57.296875 -83.898438 57.078125 -79.140625 C 56.867188 -74.378906 56.222656 -68.863281 55.140625 -62.59375 C 54.054688 -56.320312 52.269531 -49.671875 49.78125 -42.640625 C 47.300781 -35.617188 43.84375 -28.863281 39.40625 -22.375 C 34.976562 -15.894531 29.300781 -10.054688 22.375 -4.859375 C 15.457031 0.328125 6.914062 4.109375 -3.25 6.484375 Z M 55.796875 -126.5 "/></g></g></g><g fill="#e31b23" fill-opacity="1"><g transform="translate(1102.628799, 872.407944)"><g><path d="M 103.140625 -11.03125 L 114.171875 -11.03125 C 116.117188 -11.03125 119.035156 -11.191406 122.921875 -11.515625 C 126.816406 -11.835938 131.195312 -12.59375 136.0625 -13.78125 C 140.925781 -14.96875 146.113281 -16.804688 151.625 -19.296875 C 157.144531 -21.785156 162.5 -25.300781 167.6875 -29.84375 C 170.71875 -32.4375 173.742188 -35.625 176.765625 -39.40625 C 179.796875 -43.195312 182.5 -47.523438 184.875 -52.390625 C 187.257812 -57.253906 189.15625 -62.601562 190.5625 -68.4375 C 191.96875 -74.28125 192.671875 -80.660156 192.671875 -87.578125 C 187.691406 -82.171875 182.445312 -77.789062 176.9375 -74.4375 C 171.425781 -71.082031 166.179688 -68.429688 161.203125 -66.484375 C 156.234375 -64.546875 151.75 -63.195312 147.75 -62.4375 C 143.75 -61.675781 140.664062 -61.191406 138.5 -60.984375 C 146.71875 -66.171875 153.039062 -71.410156 157.46875 -76.703125 C 161.90625 -82.003906 164.554688 -85.304688 165.421875 -86.609375 C 171.265625 -95.472656 175.15625 -104.929688 177.09375 -114.984375 C 179.039062 -125.035156 180.015625 -133.847656 180.015625 -141.421875 C 180.015625 -150.503906 179.039062 -159.75 177.09375 -169.15625 C 175.15625 -178.5625 170.289062 -187.476562 162.5 -195.90625 C 158.394531 -200.238281 154.234375 -203.753906 150.015625 -206.453125 C 145.796875 -209.160156 141.578125 -211.210938 137.359375 -212.609375 C 133.148438 -214.015625 128.988281 -214.929688 124.875 -215.359375 C 120.769531 -215.796875 116.878906 -216.015625 113.203125 -216.015625 L 103.140625 -216.015625 Z M 93.734375 -227.046875 L 131.359375 -227.046875 C 145.421875 -227.046875 158.613281 -224.828125 170.9375 -220.390625 C 183.257812 -215.960938 193.53125 -210.289062 201.75 -203.375 C 206.289062 -199.695312 210.773438 -195.046875 215.203125 -189.421875 C 219.640625 -183.804688 223.640625 -177.160156 227.203125 -169.484375 C 230.773438 -161.804688 233.695312 -152.9375 235.96875 -142.875 C 238.238281 -132.820312 239.375 -121.523438 239.375 -108.984375 C 239.375 -103.148438 238.941406 -96.988281 238.078125 -90.5 C 237.210938 -84.007812 235.644531 -77.410156 233.375 -70.703125 C 231.101562 -64.003906 227.910156 -57.300781 223.796875 -50.59375 C 219.691406 -43.894531 214.398438 -37.519531 207.921875 -31.46875 C 200.992188 -24.976562 193.800781 -19.675781 186.34375 -15.5625 C 178.882812 -11.457031 171.257812 -8.269531 163.46875 -6 C 155.6875 -3.726562 147.796875 -2.160156 139.796875 -1.296875 C 131.796875 -0.429688 123.90625 0 116.125 0 L 14.59375 0 L 14.59375 -167.046875 Z M 93.734375 -227.046875 "/></g></g></g><g clip-path="url(#8836d04f7b)"><path fill="#1d2a3a" d="M 238.308594 530.929688 L 413.214844 381.332031 L 539.5 486.976562 L 406.503906 356.324219 L 203.476562 530.929688 Z M 238.308594 530.929688 " fill-opacity="1" fill-rule="evenodd"/></g><path fill="#1d2a3a" d="M 1106.953125 536.167969 L 1146.5625 536.167969 L 1146.5625 576.164062 L 1106.953125 576.164062 Z M 1106.953125 536.167969 " fill-opacity="1" fill-rule="evenodd"/><path fill="#1d2a3a" d="M 1061.636719 536.167969 L 1101.164062 536.167969 L 1101.164062 576.164062 L 1061.636719 576.164062 Z M 1061.636719 536.167969 " fill-opacity="1" fill-rule="evenodd"/><path fill="#1d2a3a" d="M 1061.636719 490.289062 L 1101.164062 490.289062 L 1101.164062 530.285156 L 1061.636719 530.285156 Z M 1061.636719 490.289062 " fill-opacity="1" fill-rule="evenodd"/><path fill="#1d2a3a" d="M 1106.953125 490.289062 L 1146.5625 490.289062 L 1146.5625 530.285156 L 1106.953125 530.285156 Z M 1106.953125 490.289062 " fill-opacity="1" fill-rule="evenodd"/><g clip-path="url(#0c6de07cef)"><path fill="#1d2a3a" d="M 1092.796875 387.679688 L 957.78125 518.238281 L 1085.261719 414.527344 L 1260.257812 561.085938 L 1296.195312 561.085938 Z M 1092.796875 387.679688 " fill-opacity="1" fill-rule="evenodd"/></g><g clip-path="url(#48f90de9bc)"><path fill="#1d2a3a" d="M 842.25 200.9375 L 906.035156 234.3125 L 906.035156 218.316406 L 841.050781 182.914062 L 811.183594 208.75 L 811.183594 228.152344 Z M 842.25 200.9375 " fill-opacity="1" fill-rule="evenodd"/></g><path fill="#1d2a3a" d="M 851.71875 580.855469 L 1090.40625 348.046875 L 1243.621094 468.40625 L 1102.628906 334.992188 L 1001.34375 354.761719 L 922.671875 280.46875 L 902.269531 280.46875 L 902.269531 244.335938 L 842.25 212.890625 L 842.25 284.882812 L 822.03125 257.757812 L 655.859375 217.394531 L 579.84375 290.214844 L 664.128906 226.496094 L 850.980469 395.953125 L 807.046875 403.859375 L 767.894531 433.925781 L 698.226562 376.917969 L 397.773438 304.097656 L 246.949219 442.292969 L 408.15625 315.683594 L 640.78125 544.445312 L 597.675781 580.855469 Z M 851.71875 580.855469 " fill-opacity="1" fill-rule="evenodd"/><path fill="#1d2a3a" d="M 669.367188 260.515625 L 583.984375 329.566406 L 604.757812 338.027344 C 604.757812 338.027344 670.101562 274.953125 670.101562 275.960938 C 670.101562 276.976562 781.683594 371.402344 781.683594 371.402344 Z M 669.367188 260.515625 " fill-opacity="1" fill-rule="evenodd"/><path fill="#1d2a3a" d="M 649.792969 306.214844 L 667.164062 306.214844 L 667.164062 323.777344 L 649.792969 323.777344 Z M 649.792969 306.214844 " fill-opacity="1" fill-rule="evenodd"/><path fill="#1d2a3a" d="M 649.792969 326.347656 L 667.164062 326.347656 L 667.164062 343.910156 L 649.792969 343.910156 Z M 649.792969 326.347656 " fill-opacity="1" fill-rule="evenodd"/><path fill="#1d2a3a" d="M 669.734375 326.347656 L 687.105469 326.347656 L 687.105469 343.910156 L 669.734375 343.910156 Z M 669.734375 326.347656 " fill-opacity="1" fill-rule="evenodd"/><path fill="#1d2a3a" d="M 669.734375 306.214844 L 687.105469 306.214844 L 687.105469 323.777344 L 669.734375 323.777344 Z M 669.734375 306.214844 " fill-opacity="1" fill-rule="evenodd"/><path fill="#1d2a3a" d="M 406.964844 516.125 L 446.484375 516.125 L 446.484375 556.121094 L 406.964844 556.121094 Z M 406.964844 516.125 " fill-opacity="1" fill-rule="evenodd"/><path fill="#1d2a3a" d="M 361.558594 516.125 L 401.085938 516.125 L 401.085938 556.121094 L 361.558594 556.121094 Z M 361.558594 516.125 " fill-opacity="1" fill-rule="evenodd"/><path fill="#1d2a3a" d="M 361.558594 470.242188 L 401.085938 470.242188 L 401.085938 510.332031 L 361.558594 510.332031 Z M 361.558594 470.242188 " fill-opacity="1" fill-rule="evenodd"/><path fill="#1d2a3a" d="M 406.964844 470.242188 L 446.484375 470.242188 L 446.484375 510.332031 L 406.964844 510.332031 Z M 406.964844 470.242188 " fill-opacity="1" fill-rule="evenodd"/><g fill="#e31b23" fill-opacity="1"><g transform="translate(227.432481, 1054.216675)"><g><path d="M 15.828125 -90.546875 C 18.867188 -91.722656 21.59375 -93.039062 24 -94.5 C 26.40625 -95.96875 28.515625 -97.40625 30.328125 -98.8125 C 32.148438 -100.21875 33.644531 -101.535156 34.8125 -102.765625 C 35.988281 -104.003906 36.925781 -105.03125 37.625 -105.84375 C 40.675781 -109.25 43.226562 -113.117188 45.28125 -117.453125 C 47.332031 -121.785156 48.882812 -126.003906 49.9375 -130.109375 L 82.46875 -55.03125 L 123.078125 -130.109375 L 154.03125 0 L 106.03125 0 L 92.484375 -56.265625 L 58.203125 7.03125 Z M 18.28125 -79.46875 C 19.101562 -77.363281 19.863281 -75.078125 20.5625 -72.609375 C 21.269531 -70.148438 21.914062 -67.925781 22.5 -65.9375 C 23.320312 -62.769531 24.113281 -59.101562 24.875 -54.9375 C 25.632812 -50.78125 26.015625 -46.828125 26.015625 -43.078125 C 26.015625 -40.378906 25.867188 -37.535156 25.578125 -34.546875 C 25.285156 -31.554688 24.816406 -28.535156 24.171875 -25.484375 C 23.523438 -22.441406 22.703125 -19.515625 21.703125 -16.703125 C 20.710938 -13.890625 19.570312 -11.425781 18.28125 -9.3125 C 16.289062 -6.03125 13.59375 -2.925781 10.1875 0 C 6.789062 2.925781 2.691406 5.269531 -2.109375 7.03125 Z M 18.28125 -79.46875 "/></g></g></g><g fill="#e31b23" fill-opacity="1"><g transform="translate(383.144062, 1054.216675)"><g><path d="M 46.953125 -61.546875 C 46.953125 -52.398438 47.65625 -44.457031 49.0625 -37.71875 C 50.46875 -30.976562 52.222656 -25.175781 54.328125 -20.3125 C 56.441406 -15.445312 58.757812 -11.429688 61.28125 -8.265625 C 63.800781 -5.097656 66.234375 -2.519531 68.578125 -0.53125 C 70.796875 -2.519531 73.195312 -5.066406 75.78125 -8.171875 C 78.363281 -11.273438 80.707031 -15.257812 82.8125 -20.125 C 84.925781 -24.988281 86.6875 -30.789062 88.09375 -37.53125 C 89.5 -44.28125 90.203125 -52.285156 90.203125 -61.546875 C 90.203125 -70.804688 89.5 -78.832031 88.09375 -85.625 C 86.6875 -92.425781 84.925781 -98.226562 82.8125 -103.03125 C 80.707031 -107.84375 78.394531 -111.800781 75.875 -114.90625 C 73.351562 -118.007812 70.921875 -120.554688 68.578125 -122.546875 C 66.234375 -120.554688 63.800781 -117.976562 61.28125 -114.8125 C 58.757812 -111.644531 56.441406 -107.628906 54.328125 -102.765625 C 52.222656 -97.898438 50.46875 -92.097656 49.0625 -85.359375 C 47.65625 -78.617188 46.953125 -70.679688 46.953125 -61.546875 Z M 4.921875 -61.546875 C 4.921875 -70.335938 6.59375 -78.597656 9.9375 -86.328125 C 13.28125 -94.066406 17.820312 -100.804688 23.5625 -106.546875 C 29.300781 -112.296875 36.039062 -116.835938 43.78125 -120.171875 C 51.519531 -123.515625 59.785156 -125.1875 68.578125 -125.1875 C 77.367188 -125.1875 85.628906 -123.515625 93.359375 -120.171875 C 101.097656 -116.835938 107.835938 -112.296875 113.578125 -106.546875 C 119.328125 -100.804688 123.867188 -94.066406 127.203125 -86.328125 C 130.546875 -78.597656 132.21875 -70.335938 132.21875 -61.546875 C 132.21875 -52.753906 130.546875 -44.488281 127.203125 -36.75 C 123.867188 -29.007812 119.328125 -22.265625 113.578125 -16.515625 C 107.835938 -10.773438 101.097656 -6.234375 93.359375 -2.890625 C 85.628906 0.441406 77.367188 2.109375 68.578125 2.109375 C 59.785156 2.109375 51.519531 0.441406 43.78125 -2.890625 C 36.039062 -6.234375 29.300781 -10.773438 23.5625 -16.515625 C 17.820312 -22.265625 13.28125 -29.007812 9.9375 -36.75 C 6.59375 -44.488281 4.921875 -52.753906 4.921875 -61.546875 Z M 4.921875 -61.546875 "/></g></g></g><g fill="#e31b23" fill-opacity="1"><g transform="translate(520.226451, 1054.216675)"><g><path d="M 50.28125 -123.078125 L 80.171875 -58.546875 L 55.03125 0 L -1.765625 -123.078125 Z M 81.234375 -60.484375 C 80.878906 -63.066406 80.582031 -65.296875 80.34375 -67.171875 C 80.113281 -69.046875 79.878906 -70.800781 79.640625 -72.4375 C 79.410156 -74.082031 79.238281 -75.632812 79.125 -77.09375 C 79.007812 -78.5625 78.953125 -80.117188 78.953125 -81.765625 C 78.953125 -89.734375 80.035156 -96.53125 82.203125 -102.15625 C 84.367188 -107.78125 87.035156 -112.46875 90.203125 -116.21875 C 93.367188 -119.96875 96.828125 -122.894531 100.578125 -125 C 104.328125 -127.113281 107.785156 -128.703125 110.953125 -129.765625 Z M 81.234375 -60.484375 "/></g></g></g><g fill="#e31b23" fill-opacity="1"><g transform="translate(627.607669, 1054.216675)"><g><path d="M 122.734375 -90.375 C 120.390625 -93.070312 117.78125 -95.617188 114.90625 -98.015625 C 112.03125 -100.421875 108.921875 -102.53125 105.578125 -104.34375 C 102.242188 -106.164062 98.671875 -107.601562 94.859375 -108.65625 C 91.046875 -109.71875 87.148438 -110.25 83.171875 -110.25 C 77.421875 -110.25 72.40625 -109.425781 68.125 -107.78125 C 63.851562 -106.144531 60.425781 -104.09375 57.84375 -101.625 C 55.5 -99.394531 53.476562 -96.609375 51.78125 -93.265625 C 50.082031 -89.929688 48.941406 -86.390625 48.359375 -82.640625 C 51.753906 -86.628906 56.054688 -89.820312 61.265625 -92.21875 C 66.484375 -94.625 72.257812 -95.707031 78.59375 -95.46875 C 76.132812 -93.476562 73.96875 -91.3125 72.09375 -88.96875 C 70.21875 -86.625 68.691406 -84.28125 67.515625 -81.9375 C 66.578125 -79.945312 65.816406 -77.984375 65.234375 -76.046875 C 64.648438 -74.109375 64.238281 -72.289062 64 -70.59375 C 63.769531 -68.894531 63.625 -67.367188 63.5625 -66.015625 C 63.5 -64.671875 63.46875 -63.648438 63.46875 -62.953125 C 63.46875 -60.015625 63.757812 -56.847656 64.34375 -53.453125 C 64.9375 -50.054688 65.878906 -47.007812 67.171875 -44.3125 C 68.453125 -41.613281 70.085938 -39.0625 72.078125 -36.65625 C 74.078125 -34.257812 76.25 -32.179688 78.59375 -30.421875 C 74.957031 -30.179688 71.675781 -30.441406 68.75 -31.203125 C 65.820312 -31.972656 63.242188 -32.882812 61.015625 -33.9375 C 58.898438 -34.988281 56.757812 -36.332031 54.59375 -37.96875 C 52.425781 -39.613281 50.347656 -41.609375 48.359375 -43.953125 C 48.585938 -40.910156 49.429688 -37.425781 50.890625 -33.5 C 52.359375 -29.570312 55.144531 -25.671875 59.25 -21.796875 C 63 -18.285156 67.015625 -15.910156 71.296875 -14.671875 C 75.578125 -13.441406 80.175781 -12.828125 85.09375 -12.828125 C 91.425781 -12.828125 96.757812 -13.910156 101.09375 -16.078125 C 105.4375 -18.253906 109.539062 -21.039062 113.40625 -24.4375 C 115.75 -26.550781 117.890625 -28.71875 119.828125 -30.9375 C 121.765625 -33.164062 123.550781 -35.453125 125.1875 -37.796875 C 123.550781 -32.054688 122.03125 -26.050781 120.625 -19.78125 C 119.21875 -13.507812 117.867188 -6.210938 116.578125 2.109375 L 98.984375 2.109375 L 107.78125 -11.78125 L 107.25 -12.125 C 101.625 -6.625 95.617188 -2.875 89.234375 -0.875 C 82.847656 1.113281 75.898438 2.109375 68.390625 2.109375 C 59.253906 2.109375 50.929688 0.757812 43.421875 -1.9375 C 35.921875 -4.632812 29.59375 -8.207031 24.4375 -12.65625 C 21.863281 -14.882812 19.398438 -17.492188 17.046875 -20.484375 C 14.703125 -23.472656 12.625 -26.84375 10.8125 -30.59375 C 9 -34.34375 7.535156 -38.59375 6.421875 -43.34375 C 5.304688 -48.09375 4.75 -53.335938 4.75 -59.078125 C 4.75 -65.878906 5.363281 -71.945312 6.59375 -77.28125 C 7.820312 -82.613281 9.398438 -87.390625 11.328125 -91.609375 C 13.265625 -95.828125 15.460938 -99.457031 17.921875 -102.5 C 20.390625 -105.550781 22.851562 -108.191406 25.3125 -110.421875 C 30.007812 -114.523438 35.84375 -118.007812 42.8125 -120.875 C 49.789062 -123.75 57.910156 -125.1875 67.171875 -125.1875 C 76.304688 -125.1875 84.679688 -123.398438 92.296875 -119.828125 C 99.921875 -116.253906 106.664062 -111.421875 112.53125 -105.328125 L 113.234375 -105.671875 L 99.34375 -125.1875 L 111.125 -125.1875 Z M 122.734375 -90.375 "/></g></g></g><g fill="#e31b23" fill-opacity="1"><g transform="translate(755.9027, 1054.216675)"><g><path d="M 57.671875 -57.3125 C 60.722656 -57.195312 63.566406 -57.640625 66.203125 -58.640625 C 68.835938 -59.640625 71.09375 -61.015625 72.96875 -62.765625 C 74.726562 -64.410156 76.191406 -66.519531 77.359375 -69.09375 C 78.535156 -71.675781 79.125 -74.664062 79.125 -78.0625 C 79.125 -81.46875 78.476562 -85.101562 77.1875 -88.96875 C 75.894531 -92.832031 73.609375 -96.46875 70.328125 -99.875 C 73.265625 -99.164062 75.90625 -98.109375 78.25 -96.703125 C 80.59375 -95.296875 82.992188 -93.304688 85.453125 -90.734375 C 85.453125 -94.242188 84.804688 -97.609375 83.515625 -100.828125 C 82.222656 -104.054688 80.375 -106.867188 77.96875 -109.265625 C 75.570312 -111.671875 72.671875 -113.578125 69.265625 -114.984375 C 65.867188 -116.398438 62.003906 -117.109375 57.671875 -117.109375 Z M 8.4375 -90.546875 L 49.765625 -123.078125 L 57.671875 -123.078125 C 60.835938 -123.078125 64.941406 -122.664062 69.984375 -121.84375 C 75.023438 -121.03125 79.976562 -119.363281 84.84375 -116.84375 C 89.707031 -114.320312 93.894531 -110.6875 97.40625 -105.9375 C 100.925781 -101.1875 102.6875 -94.941406 102.6875 -87.203125 C 102.6875 -82.398438 101.75 -77.828125 99.875 -73.484375 C 98 -69.148438 95.210938 -65.34375 91.515625 -62.0625 C 87.828125 -58.78125 83.140625 -56.171875 77.453125 -54.234375 C 71.765625 -52.304688 65.171875 -51.34375 57.671875 -51.34375 L 57.671875 -49.234375 L 92.484375 -49.234375 L 92.484375 -37.796875 C 92.484375 -33.109375 92.660156 -29.210938 93.015625 -26.109375 C 93.367188 -23.003906 93.78125 -20.425781 94.25 -18.375 C 94.71875 -16.320312 95.210938 -14.765625 95.734375 -13.703125 C 96.265625 -12.648438 96.765625 -11.832031 97.234375 -11.25 C 98.171875 -9.957031 99.519531 -8.785156 101.28125 -7.734375 C 103.039062 -6.679688 105.148438 -6.15625 107.609375 -6.15625 C 109.015625 -6.15625 110.445312 -6.359375 111.90625 -6.765625 C 113.375 -7.179688 114.632812 -7.679688 115.6875 -8.265625 C 116.75 -8.847656 117.835938 -9.753906 118.953125 -10.984375 C 120.066406 -12.210938 121.03125 -13.414062 121.84375 -14.59375 C 121.5 -10.375 120.300781 -7.148438 118.25 -4.921875 C 116.195312 -2.691406 114.171875 -1.109375 112.171875 -0.171875 C 110.421875 0.765625 108.546875 1.378906 106.546875 1.671875 C 104.554688 1.960938 102.566406 2.109375 100.578125 2.109375 C 98.347656 2.109375 95.914062 1.929688 93.28125 1.578125 C 90.644531 1.234375 87.976562 0.59375 85.28125 -0.34375 C 82.582031 -1.289062 79.941406 -2.582031 77.359375 -4.21875 C 74.785156 -5.863281 72.5 -8.03125 70.5 -10.71875 C 68.039062 -14.125 66.019531 -18.316406 64.4375 -23.296875 C 62.851562 -28.273438 61.890625 -33.109375 61.546875 -37.796875 L 61.1875 -43.078125 L 57.671875 -43.078125 L 57.671875 0 L 8.4375 0 Z M 8.4375 -90.546875 "/></g></g></g><g fill="#e31b23" fill-opacity="1"><g transform="translate(873.301433, 1054.216675)"><g><path d="M 90.546875 -125.1875 L 101.09375 -90.375 C 97 -95.53125 92.3125 -99.867188 87.03125 -103.390625 C 83.050781 -106.085938 78.597656 -108.375 73.671875 -110.25 C 68.742188 -112.125 63.9375 -113.0625 59.25 -113.0625 C 55.96875 -113.0625 53.300781 -112.5625 51.25 -111.5625 C 49.195312 -110.5625 47.53125 -109.300781 46.25 -107.78125 C 49.40625 -108.019531 52.390625 -107.84375 55.203125 -107.25 C 58.023438 -106.664062 60.664062 -105.726562 63.125 -104.4375 C 62.1875 -104.4375 61.070312 -104.4375 59.78125 -104.4375 C 58.601562 -104.4375 57.34375 -104.347656 56 -104.171875 C 54.65625 -104.003906 53.363281 -103.769531 52.125 -103.46875 C 50.894531 -103.175781 49.875 -102.859375 49.0625 -102.515625 C 45.78125 -100.984375 44.140625 -98.578125 44.140625 -95.296875 C 44.140625 -93.890625 44.398438 -92.660156 44.921875 -91.609375 C 45.453125 -90.554688 46.007812 -89.675781 46.59375 -88.96875 C 47.882812 -87.445312 49.4375 -86.300781 51.25 -85.53125 C 53.070312 -84.769531 54.800781 -84.097656 56.4375 -83.515625 C 58.195312 -82.929688 60.039062 -82.285156 61.96875 -81.578125 C 63.90625 -80.878906 65.875 -80.175781 67.875 -79.46875 L 77.359375 -75.953125 C 78.765625 -75.484375 80.226562 -74.867188 81.75 -74.109375 C 83.28125 -73.347656 84.835938 -72.5 86.421875 -71.5625 C 88.003906 -70.625 89.46875 -69.65625 90.8125 -68.65625 C 92.164062 -67.664062 93.367188 -66.703125 94.421875 -65.765625 C 97.460938 -62.828125 100.007812 -59.128906 102.0625 -54.671875 C 104.113281 -50.222656 105.140625 -45.242188 105.140625 -39.734375 C 105.140625 -35.046875 104.4375 -30.328125 103.03125 -25.578125 C 101.625 -20.835938 99.398438 -16.648438 96.359375 -13.015625 C 93.660156 -9.847656 90.671875 -7.296875 87.390625 -5.359375 C 84.109375 -3.429688 80.675781 -1.910156 77.09375 -0.796875 C 73.519531 0.316406 69.859375 1.078125 66.109375 1.484375 C 62.359375 1.898438 58.722656 2.109375 55.203125 2.109375 L 52.046875 2.109375 C 47.472656 1.992188 43.191406 1.316406 39.203125 0.078125 C 35.222656 -1.148438 31.617188 -2.703125 28.390625 -4.578125 C 25.171875 -6.453125 22.242188 -8.53125 19.609375 -10.8125 C 16.972656 -13.09375 14.65625 -15.347656 12.65625 -17.578125 L 12.125 -17.40625 L 24.609375 2.109375 L 14.0625 2.109375 L 3.515625 -32.703125 C 7.617188 -27.546875 12.25 -23.207031 17.40625 -19.6875 C 20.332031 -17.695312 23.40625 -16.085938 26.625 -14.859375 C 29.851562 -13.628906 32.960938 -12.691406 35.953125 -12.046875 C 38.941406 -11.398438 41.664062 -10.957031 44.125 -10.71875 C 46.59375 -10.488281 48.585938 -10.375 50.109375 -10.375 C 53.742188 -10.375 56.613281 -10.8125 58.71875 -11.6875 C 60.832031 -12.570312 62.648438 -13.71875 64.171875 -15.125 C 61.015625 -14.882812 58.023438 -15.054688 55.203125 -15.640625 C 52.390625 -16.234375 49.753906 -17.175781 47.296875 -18.46875 C 49.640625 -18.226562 52.304688 -18.34375 55.296875 -18.8125 C 58.285156 -19.28125 60.660156 -20.160156 62.421875 -21.453125 C 64.296875 -22.742188 65.554688 -24.5 66.203125 -26.71875 C 66.847656 -28.945312 66.054688 -31.351562 63.828125 -33.9375 C 62.648438 -35.226562 61.125 -36.457031 59.25 -37.625 C 57.375 -38.800781 54.914062 -40.03125 51.875 -41.3125 C 48.820312 -42.601562 46.035156 -43.71875 43.515625 -44.65625 C 40.992188 -45.59375 38.617188 -46.59375 36.390625 -47.65625 L 33.765625 -48.875 C 30.359375 -50.519531 26.957031 -52.453125 23.5625 -54.671875 C 20.164062 -56.898438 17.175781 -59.597656 14.59375 -62.765625 C 12.363281 -65.460938 10.457031 -68.773438 8.875 -72.703125 C 7.289062 -76.628906 6.5 -80.9375 6.5 -85.625 C 6.5 -92.539062 7.9375 -98.8125 10.8125 -104.4375 C 13.6875 -110.0625 17.289062 -114.457031 21.625 -117.625 C 24.4375 -119.625 28.097656 -121.382812 32.609375 -122.90625 C 37.128906 -124.425781 42.726562 -125.1875 49.40625 -125.1875 C 57.613281 -125.1875 65.085938 -123.691406 71.828125 -120.703125 C 78.566406 -117.710938 85.21875 -112.644531 91.78125 -105.5 L 92.484375 -105.671875 L 80 -125.1875 Z M 90.546875 -125.1875 "/></g></g></g><g fill="#e31b23" fill-opacity="1"><g transform="translate(1076.699682, 1020.527058)"><g><path d="M 21 -44.8125 L 21 -0.640625 L 22.859375 -4.03125 L 26.1875 -0.640625 L 24.453125 -18.1875 L 40.84375 0 L 3.078125 0 L 3.078125 -44.8125 Z M 21 -44.8125 "/></g></g></g><g fill="#e31b23" fill-opacity="1"><g transform="translate(1115.675159, 1020.527058)"><g><path d="M 21 -44.8125 L 21 -0.640625 L 22.859375 -4.03125 L 26.1875 -0.640625 L 24.453125 -18.1875 L 40.84375 0 L 3.078125 0 L 3.078125 -44.8125 Z M 21 -44.8125 "/></g></g></g><g fill="#e31b23" fill-opacity="1"><g transform="translate(1154.650637, 1020.527058)"><g><path d="M 40.203125 -45.578125 L 44.421875 -32.90625 C 42.765625 -34.820312 40.890625 -36.398438 38.796875 -37.640625 C 36.742188 -38.878906 34.90625 -39.65625 33.28125 -39.96875 C 31.664062 -40.289062 30.367188 -40.453125 29.390625 -40.453125 C 27.253906 -40.453125 25.46875 -40.078125 24.03125 -39.328125 C 22.601562 -38.585938 21.484375 -37.789062 20.671875 -36.9375 C 19.648438 -35.820312 18.796875 -34.441406 18.109375 -32.796875 C 17.429688 -31.160156 17.113281 -29.363281 17.15625 -27.40625 C 17.84375 -28.382812 18.554688 -29.140625 19.296875 -29.671875 C 20.046875 -30.203125 20.910156 -30.703125 21.890625 -31.171875 C 22.921875 -31.640625 23.90625 -32 24.84375 -32.25 C 25.78125 -32.507812 26.738281 -32.6875 27.71875 -32.78125 C 26.65625 -32.050781 25.71875 -31.269531 24.90625 -30.4375 C 24.09375 -29.601562 23.34375 -28.695312 22.65625 -27.71875 C 21.59375 -26.09375 20.828125 -24.488281 20.359375 -22.90625 C 19.890625 -21.332031 19.65625 -19.566406 19.65625 -17.609375 C 19.65625 -15.984375 19.832031 -14.398438 20.1875 -12.859375 C 20.550781 -11.328125 21.269531 -9.878906 22.34375 -8.515625 C 23.539062 -7.023438 24.84375 -6.007812 26.25 -5.46875 C 27.65625 -4.9375 29.191406 -4.671875 30.859375 -4.671875 C 33.117188 -4.671875 35.054688 -5.066406 36.671875 -5.859375 C 38.296875 -6.648438 39.789062 -7.660156 41.15625 -8.890625 C 41.757812 -9.410156 42.429688 -10.070312 43.171875 -10.875 C 43.921875 -11.6875 44.679688 -12.648438 45.453125 -13.765625 C 44.859375 -11.835938 44.289062 -9.691406 43.75 -7.328125 C 43.21875 -4.960938 42.738281 -2.265625 42.3125 0.765625 L 36.109375 0.765625 L 39.109375 -4.28125 L 38.921875 -4.421875 C 36.867188 -2.410156 34.679688 -1.039062 32.359375 -0.3125 C 30.035156 0.40625 27.507812 0.765625 24.78125 0.765625 C 21.445312 0.765625 18.476562 0.285156 15.875 -0.671875 C 13.269531 -1.628906 11.050781 -2.878906 9.21875 -4.421875 C 6.78125 -6.460938 4.921875 -8.988281 3.640625 -12 C 2.367188 -15.007812 1.734375 -18.394531 1.734375 -22.15625 C 1.734375 -24.414062 1.957031 -26.460938 2.40625 -28.296875 C 2.851562 -30.128906 3.4375 -31.757812 4.15625 -33.1875 C 4.882812 -34.625 5.695312 -35.894531 6.59375 -37 C 7.488281 -38.113281 8.382812 -39.050781 9.28125 -39.8125 C 11.582031 -41.90625 14.078125 -43.390625 16.765625 -44.265625 C 19.460938 -45.140625 22.15625 -45.578125 24.84375 -45.578125 C 28.082031 -45.578125 31.015625 -44.90625 33.640625 -43.5625 C 36.265625 -42.21875 38.625 -40.5 40.71875 -38.40625 L 40.96875 -38.46875 L 35.90625 -45.578125 Z M 40.203125 -45.578125 "/></g></g></g><g fill="#1d2a3a" fill-opacity="1"><g transform="translate(298.857971, 1175.350574)"><g><path d="M 30.796875 -49.515625 C 30.984375 -49.847656 31.289062 -50.015625 31.71875 -50.015625 L 35.296875 -50.015625 C 35.535156 -50.015625 35.710938 -49.941406 35.828125 -49.796875 C 35.953125 -49.660156 35.988281 -49.492188 35.9375 -49.296875 L 29.9375 -0.71875 C 29.9375 -0.519531 29.863281 -0.347656 29.71875 -0.203125 C 29.582031 -0.0664062 29.394531 0 29.15625 0 L 25.65625 0 C 25.226562 0 25.015625 -0.238281 25.015625 -0.71875 L 29.71875 -39.015625 C 29.769531 -39.160156 29.757812 -39.234375 29.6875 -39.234375 C 29.613281 -39.234375 29.53125 -39.179688 29.4375 -39.078125 L 20.296875 -23.65625 C 20.148438 -23.320312 19.910156 -23.15625 19.578125 -23.15625 C 19.148438 -23.15625 18.910156 -23.320312 18.859375 -23.65625 L 13.5 -39.015625 C 13.457031 -39.109375 13.398438 -39.15625 13.328125 -39.15625 C 13.253906 -39.15625 13.191406 -39.082031 13.140625 -38.9375 L 8.5 -0.71875 C 8.457031 -0.519531 8.363281 -0.347656 8.21875 -0.203125 C 8.070312 -0.0664062 7.90625 0 7.71875 0 L 4.140625 0 C 3.671875 0 3.484375 -0.238281 3.578125 -0.71875 L 9.5 -49.296875 C 9.59375 -49.773438 9.859375 -50.015625 10.296875 -50.015625 L 13.9375 -50.015625 C 14.363281 -50.015625 14.597656 -49.847656 14.640625 -49.515625 L 20.578125 -33.015625 C 20.578125 -32.921875 20.625 -32.875 20.71875 -32.875 C 20.8125 -32.875 20.882812 -32.921875 20.9375 -33.015625 Z M 30.796875 -49.515625 "/></g></g></g><g fill="#1d2a3a" fill-opacity="1"><g transform="translate(334.939787, 1175.350574)"><g><path d="M 14.296875 0.578125 C 11.054688 0.578125 8.484375 -0.382812 6.578125 -2.3125 C 4.671875 -4.25 3.71875 -6.835938 3.71875 -10.078125 C 3.71875 -10.453125 3.765625 -11.070312 3.859375 -11.9375 L 7.078125 -38.078125 C 7.546875 -41.796875 9.03125 -44.8125 11.53125 -47.125 C 14.039062 -49.4375 17.054688 -50.59375 20.578125 -50.59375 C 23.816406 -50.59375 26.398438 -49.640625 28.328125 -47.734375 C 30.253906 -45.828125 31.21875 -43.273438 31.21875 -40.078125 C 31.21875 -39.703125 31.171875 -39.035156 31.078125 -38.078125 L 27.859375 -11.9375 C 27.390625 -8.164062 25.90625 -5.132812 23.40625 -2.84375 C 20.90625 -0.5625 17.867188 0.578125 14.296875 0.578125 Z M 14.796875 -3.859375 C 16.929688 -3.859375 18.75 -4.582031 20.25 -6.03125 C 21.75 -7.488281 22.644531 -9.359375 22.9375 -11.640625 L 26.21875 -38.296875 C 26.269531 -38.585938 26.296875 -38.96875 26.296875 -39.4375 C 26.296875 -41.4375 25.722656 -43.054688 24.578125 -44.296875 C 23.429688 -45.535156 21.90625 -46.15625 20 -46.15625 C 17.957031 -46.15625 16.195312 -45.425781 14.71875 -43.96875 C 13.238281 -42.519531 12.359375 -40.628906 12.078125 -38.296875 L 8.78125 -11.640625 C 8.738281 -11.359375 8.71875 -10.929688 8.71875 -10.359375 C 8.71875 -8.410156 9.265625 -6.835938 10.359375 -5.640625 C 11.453125 -4.453125 12.929688 -3.859375 14.796875 -3.859375 Z M 14.796875 -3.859375 "/></g></g></g><g fill="#1d2a3a" fill-opacity="1"><g transform="translate(366.520307, 1175.350574)"><g><path d="M 11.859375 0 C 11.484375 0 11.242188 -0.210938 11.140625 -0.640625 L 7.078125 -49.234375 C 7.078125 -49.753906 7.3125 -50.015625 7.78125 -50.015625 L 11.71875 -50.015625 C 12.144531 -50.015625 12.359375 -49.800781 12.359375 -49.375 L 14.9375 -9.4375 C 14.976562 -9.332031 15.019531 -9.28125 15.0625 -9.28125 C 15.113281 -9.28125 15.164062 -9.332031 15.21875 -9.4375 L 27.578125 -49.375 C 27.671875 -49.800781 27.929688 -50.015625 28.359375 -50.015625 L 32.15625 -50.015625 C 32.632812 -50.015625 32.800781 -49.753906 32.65625 -49.234375 L 16.65625 -0.640625 C 16.507812 -0.210938 16.222656 0 15.796875 0 Z M 11.859375 0 "/></g></g></g><g fill="#1d2a3a" fill-opacity="1"><g transform="translate(396.957627, 1175.350574)"><g><path d="M 4.28125 0 C 3.8125 0 3.625 -0.238281 3.71875 -0.71875 L 9.640625 -49.296875 C 9.742188 -49.773438 10.007812 -50.015625 10.4375 -50.015625 L 14 -50.015625 C 14.195312 -50.015625 14.351562 -49.941406 14.46875 -49.796875 C 14.582031 -49.660156 14.617188 -49.492188 14.578125 -49.296875 L 8.640625 -0.71875 C 8.597656 -0.519531 8.503906 -0.347656 8.359375 -0.203125 C 8.210938 -0.0664062 8.046875 0 7.859375 0 Z M 4.28125 0 "/></g></g></g><g fill="#1d2a3a" fill-opacity="1"><g transform="translate(411.819063, 1175.350574)"><g><path d="M 29.078125 -49.296875 C 29.078125 -49.492188 29.148438 -49.660156 29.296875 -49.796875 C 29.441406 -49.941406 29.632812 -50.015625 29.875 -50.015625 L 33.296875 -50.015625 C 33.722656 -50.015625 33.9375 -49.773438 33.9375 -49.296875 L 27.9375 -0.71875 C 27.84375 -0.238281 27.582031 0 27.15625 0 L 23.078125 0 C 22.742188 0 22.503906 -0.191406 22.359375 -0.578125 L 13.4375 -37.515625 C 13.382812 -37.660156 13.3125 -37.71875 13.21875 -37.6875 C 13.125 -37.664062 13.078125 -37.582031 13.078125 -37.4375 L 8.640625 -0.71875 C 8.597656 -0.519531 8.503906 -0.347656 8.359375 -0.203125 C 8.210938 -0.0664062 8.046875 0 7.859375 0 L 4.28125 0 C 3.8125 0 3.625 -0.238281 3.71875 -0.71875 L 9.640625 -49.296875 C 9.742188 -49.773438 10.007812 -50.015625 10.4375 -50.015625 L 14.4375 -50.015625 C 14.863281 -50.015625 15.097656 -49.828125 15.140625 -49.453125 L 24.21875 -12.4375 C 24.21875 -12.289062 24.265625 -12.226562 24.359375 -12.25 C 24.460938 -12.28125 24.535156 -12.363281 24.578125 -12.5 Z M 29.078125 -49.296875 "/></g></g></g><g fill="#1d2a3a" fill-opacity="1"><g transform="translate(446.043232, 1175.350574)"><g><path d="M 14.140625 0.578125 C 10.953125 0.578125 8.414062 -0.328125 6.53125 -2.140625 C 4.65625 -3.953125 3.71875 -6.40625 3.71875 -9.5 C 3.71875 -9.882812 3.765625 -10.503906 3.859375 -11.359375 L 7.21875 -38.65625 C 7.695312 -42.28125 9.132812 -45.175781 11.53125 -47.34375 C 13.9375 -49.507812 16.90625 -50.59375 20.4375 -50.59375 C 23.625 -50.59375 26.160156 -49.695312 28.046875 -47.90625 C 29.929688 -46.125 30.875 -43.679688 30.875 -40.578125 C 30.875 -40.203125 30.820312 -39.535156 30.71875 -38.578125 L 30.375 -35.515625 C 30.269531 -35.035156 30.003906 -34.796875 29.578125 -34.796875 L 26.015625 -34.796875 C 25.816406 -34.796875 25.65625 -34.863281 25.53125 -35 C 25.414062 -35.144531 25.382812 -35.316406 25.4375 -35.515625 L 25.796875 -38.734375 C 25.835938 -39.015625 25.859375 -39.441406 25.859375 -40.015625 C 25.859375 -41.867188 25.320312 -43.351562 24.25 -44.46875 C 23.1875 -45.59375 21.722656 -46.15625 19.859375 -46.15625 C 17.816406 -46.15625 16.078125 -45.472656 14.640625 -44.109375 C 13.210938 -42.753906 12.359375 -40.960938 12.078125 -38.734375 L 8.71875 -11.296875 C 8.664062 -11.003906 8.640625 -10.617188 8.640625 -10.140625 C 8.640625 -8.234375 9.175781 -6.707031 10.25 -5.5625 C 11.320312 -4.425781 12.785156 -3.859375 14.640625 -3.859375 C 16.742188 -3.859375 18.507812 -4.535156 19.9375 -5.890625 C 21.363281 -7.253906 22.195312 -9.054688 22.4375 -11.296875 L 23.578125 -20.4375 C 23.578125 -20.625 23.503906 -20.71875 23.359375 -20.71875 L 17.359375 -20.71875 C 16.890625 -20.71875 16.703125 -20.957031 16.796875 -21.4375 L 17.15625 -24.4375 C 17.25 -24.914062 17.507812 -25.15625 17.9375 -25.15625 L 28.359375 -25.15625 C 28.796875 -25.15625 29.015625 -24.914062 29.015625 -24.4375 L 27.359375 -11.359375 C 26.929688 -7.742188 25.503906 -4.847656 23.078125 -2.671875 C 20.648438 -0.503906 17.671875 0.578125 14.140625 0.578125 Z M 14.140625 0.578125 "/></g></g></g><g fill="#1d2a3a" fill-opacity="1"><g transform="translate(477.266502, 1175.350574)"><g/></g></g><g fill="#1d2a3a" fill-opacity="1"><g transform="translate(491.12764, 1175.350574)"><g><path d="M 31.15625 -46.296875 C 31.101562 -46.109375 31.003906 -45.941406 30.859375 -45.796875 C 30.722656 -45.660156 30.5625 -45.59375 30.375 -45.59375 L 14.4375 -45.59375 C 14.34375 -45.59375 14.257812 -45.566406 14.1875 -45.515625 C 14.113281 -45.460938 14.078125 -45.390625 14.078125 -45.296875 L 11.9375 -27.578125 C 11.882812 -27.535156 11.878906 -27.476562 11.921875 -27.40625 C 11.972656 -27.332031 12.046875 -27.296875 12.140625 -27.296875 L 22.21875 -27.296875 C 22.695312 -27.296875 22.890625 -27.054688 22.796875 -26.578125 L 22.4375 -23.515625 C 22.34375 -23.035156 22.082031 -22.796875 21.65625 -22.796875 L 11.578125 -22.796875 C 11.390625 -22.796875 11.296875 -22.695312 11.296875 -22.5 L 8.640625 -0.71875 C 8.597656 -0.519531 8.503906 -0.347656 8.359375 -0.203125 C 8.210938 -0.0664062 8.046875 0 7.859375 0 L 4.28125 0 C 3.8125 0 3.625 -0.238281 3.71875 -0.71875 L 9.640625 -49.296875 C 9.742188 -49.773438 10.007812 -50.015625 10.4375 -50.015625 L 30.875 -50.015625 C 31.300781 -50.015625 31.515625 -49.773438 31.515625 -49.296875 Z M 31.15625 -46.296875 "/></g></g></g><g fill="#1d2a3a" fill-opacity="1"><g transform="translate(519.135714, 1175.350574)"><g><path d="M 14.296875 0.578125 C 11.054688 0.578125 8.484375 -0.382812 6.578125 -2.3125 C 4.671875 -4.25 3.71875 -6.835938 3.71875 -10.078125 C 3.71875 -10.453125 3.765625 -11.070312 3.859375 -11.9375 L 7.078125 -38.078125 C 7.546875 -41.796875 9.03125 -44.8125 11.53125 -47.125 C 14.039062 -49.4375 17.054688 -50.59375 20.578125 -50.59375 C 23.816406 -50.59375 26.398438 -49.640625 28.328125 -47.734375 C 30.253906 -45.828125 31.21875 -43.273438 31.21875 -40.078125 C 31.21875 -39.703125 31.171875 -39.035156 31.078125 -38.078125 L 27.859375 -11.9375 C 27.390625 -8.164062 25.90625 -5.132812 23.40625 -2.84375 C 20.90625 -0.5625 17.867188 0.578125 14.296875 0.578125 Z M 14.796875 -3.859375 C 16.929688 -3.859375 18.75 -4.582031 20.25 -6.03125 C 21.75 -7.488281 22.644531 -9.359375 22.9375 -11.640625 L 26.21875 -38.296875 C 26.269531 -38.585938 26.296875 -38.96875 26.296875 -39.4375 C 26.296875 -41.4375 25.722656 -43.054688 24.578125 -44.296875 C 23.429688 -45.535156 21.90625 -46.15625 20 -46.15625 C 17.957031 -46.15625 16.195312 -45.425781 14.71875 -43.96875 C 13.238281 -42.519531 12.359375 -40.628906 12.078125 -38.296875 L 8.78125 -11.640625 C 8.738281 -11.359375 8.71875 -10.929688 8.71875 -10.359375 C 8.71875 -8.410156 9.265625 -6.835938 10.359375 -5.640625 C 11.453125 -4.453125 12.929688 -3.859375 14.796875 -3.859375 Z M 14.796875 -3.859375 "/></g></g></g><g fill="#1d2a3a" fill-opacity="1"><g transform="translate(550.716234, 1175.350574)"><g><path d="M 23.015625 0 C 22.628906 0 22.363281 -0.191406 22.21875 -0.578125 L 17.859375 -22.65625 C 17.859375 -22.789062 17.789062 -22.859375 17.65625 -22.859375 L 11.578125 -22.859375 C 11.523438 -22.859375 11.460938 -22.832031 11.390625 -22.78125 C 11.328125 -22.738281 11.296875 -22.671875 11.296875 -22.578125 L 8.640625 -0.71875 C 8.597656 -0.519531 8.503906 -0.347656 8.359375 -0.203125 C 8.210938 -0.0664062 8.046875 0 7.859375 0 L 4.28125 0 C 3.8125 0 3.625 -0.238281 3.71875 -0.71875 L 9.640625 -49.296875 C 9.742188 -49.773438 10.007812 -50.015625 10.4375 -50.015625 L 21.859375 -50.015625 C 24.859375 -50.015625 27.238281 -48.988281 29 -46.9375 C 30.769531 -44.894531 31.65625 -42.160156 31.65625 -38.734375 C 31.65625 -38.203125 31.609375 -37.367188 31.515625 -36.234375 C 31.128906 -33.128906 30.148438 -30.457031 28.578125 -28.21875 C 27.003906 -25.976562 25.050781 -24.410156 22.71875 -23.515625 C 22.53125 -23.460938 22.4375 -23.34375 22.4375 -23.15625 L 27.296875 -0.78125 L 27.296875 -0.640625 C 27.296875 -0.210938 27.054688 0 26.578125 0 Z M 14.4375 -45.59375 C 14.34375 -45.59375 14.257812 -45.566406 14.1875 -45.515625 C 14.113281 -45.460938 14.078125 -45.390625 14.078125 -45.296875 L 11.859375 -27.21875 C 11.859375 -27.125 11.878906 -27.050781 11.921875 -27 C 11.972656 -26.957031 12.023438 -26.9375 12.078125 -26.9375 L 18.359375 -26.9375 C 20.453125 -26.9375 22.257812 -27.78125 23.78125 -29.46875 C 25.3125 -31.164062 26.242188 -33.421875 26.578125 -36.234375 C 26.628906 -36.660156 26.65625 -37.253906 26.65625 -38.015625 C 26.65625 -40.347656 26.117188 -42.191406 25.046875 -43.546875 C 23.972656 -44.910156 22.507812 -45.59375 20.65625 -45.59375 Z M 14.4375 -45.59375 "/></g></g></g><g fill="#1d2a3a" fill-opacity="1"><g transform="translate(581.439354, 1175.350574)"><g><path d="M 10.5 0 C 10.070312 0 9.859375 -0.210938 9.859375 -0.640625 L 6.640625 -49.234375 C 6.640625 -49.472656 6.710938 -49.660156 6.859375 -49.796875 C 7.003906 -49.941406 7.171875 -50.015625 7.359375 -50.015625 L 11.078125 -50.015625 C 11.503906 -50.015625 11.71875 -49.800781 11.71875 -49.375 L 13.640625 -11.796875 C 13.691406 -11.691406 13.738281 -11.640625 13.78125 -11.640625 C 13.832031 -11.640625 13.882812 -11.691406 13.9375 -11.796875 L 24.15625 -49.375 C 24.289062 -49.800781 24.550781 -50.015625 24.9375 -50.015625 L 28.078125 -50.015625 C 28.503906 -50.015625 28.71875 -49.800781 28.71875 -49.375 L 30.015625 -11.796875 C 30.054688 -11.597656 30.148438 -11.597656 30.296875 -11.796875 L 40.875 -49.375 C 40.96875 -49.800781 41.226562 -50.015625 41.65625 -50.015625 L 45.296875 -50.015625 C 45.535156 -50.015625 45.703125 -49.941406 45.796875 -49.796875 C 45.890625 -49.660156 45.890625 -49.472656 45.796875 -49.234375 L 31.296875 -0.640625 C 31.148438 -0.210938 30.863281 0 30.4375 0 L 27.015625 0 C 26.628906 0 26.4375 -0.210938 26.4375 -0.640625 L 25.21875 -38.375 C 25.175781 -38.46875 25.128906 -38.515625 25.078125 -38.515625 C 25.035156 -38.515625 24.988281 -38.46875 24.9375 -38.375 L 14.640625 -0.640625 C 14.503906 -0.210938 14.242188 0 13.859375 0 Z M 10.5 0 "/></g></g></g><g fill="#1d2a3a" fill-opacity="1"><g transform="translate(624.594664, 1175.350574)"><g><path d="M 21.9375 0 C 21.457031 0 21.21875 -0.210938 21.21875 -0.640625 L 20.578125 -9.5 C 20.578125 -9.695312 20.484375 -9.796875 20.296875 -9.796875 L 7.71875 -9.796875 C 7.625 -9.796875 7.539062 -9.769531 7.46875 -9.71875 C 7.394531 -9.664062 7.359375 -9.59375 7.359375 -9.5 L 4.5 -0.640625 C 4.351562 -0.210938 4.066406 0 3.640625 0 L 0.140625 0 C -0.0976562 0 -0.265625 -0.0664062 -0.359375 -0.203125 C -0.453125 -0.347656 -0.453125 -0.539062 -0.359375 -0.78125 L 16 -49.375 C 16.09375 -49.800781 16.359375 -50.015625 16.796875 -50.015625 L 21 -50.015625 C 21.4375 -50.015625 21.65625 -49.800781 21.65625 -49.375 L 26.21875 -0.78125 C 26.21875 -0.257812 25.984375 0 25.515625 0 Z M 8.78125 -14.21875 C 8.78125 -14.03125 8.851562 -13.9375 9 -13.9375 L 19.9375 -13.9375 C 20.082031 -13.9375 20.15625 -14.03125 20.15625 -14.21875 L 18.078125 -42.296875 C 18.078125 -42.441406 18.050781 -42.515625 18 -42.515625 C 17.957031 -42.515625 17.890625 -42.441406 17.796875 -42.296875 Z M 8.78125 -14.21875 "/></g></g></g><g fill="#1d2a3a" fill-opacity="1"><g transform="translate(652.959988, 1175.350574)"><g><path d="M 23.015625 0 C 22.628906 0 22.363281 -0.191406 22.21875 -0.578125 L 17.859375 -22.65625 C 17.859375 -22.789062 17.789062 -22.859375 17.65625 -22.859375 L 11.578125 -22.859375 C 11.523438 -22.859375 11.460938 -22.832031 11.390625 -22.78125 C 11.328125 -22.738281 11.296875 -22.671875 11.296875 -22.578125 L 8.640625 -0.71875 C 8.597656 -0.519531 8.503906 -0.347656 8.359375 -0.203125 C 8.210938 -0.0664062 8.046875 0 7.859375 0 L 4.28125 0 C 3.8125 0 3.625 -0.238281 3.71875 -0.71875 L 9.640625 -49.296875 C 9.742188 -49.773438 10.007812 -50.015625 10.4375 -50.015625 L 21.859375 -50.015625 C 24.859375 -50.015625 27.238281 -48.988281 29 -46.9375 C 30.769531 -44.894531 31.65625 -42.160156 31.65625 -38.734375 C 31.65625 -38.203125 31.609375 -37.367188 31.515625 -36.234375 C 31.128906 -33.128906 30.148438 -30.457031 28.578125 -28.21875 C 27.003906 -25.976562 25.050781 -24.410156 22.71875 -23.515625 C 22.53125 -23.460938 22.4375 -23.34375 22.4375 -23.15625 L 27.296875 -0.78125 L 27.296875 -0.640625 C 27.296875 -0.210938 27.054688 0 26.578125 0 Z M 14.4375 -45.59375 C 14.34375 -45.59375 14.257812 -45.566406 14.1875 -45.515625 C 14.113281 -45.460938 14.078125 -45.390625 14.078125 -45.296875 L 11.859375 -27.21875 C 11.859375 -27.125 11.878906 -27.050781 11.921875 -27 C 11.972656 -26.957031 12.023438 -26.9375 12.078125 -26.9375 L 18.359375 -26.9375 C 20.453125 -26.9375 22.257812 -27.78125 23.78125 -29.46875 C 25.3125 -31.164062 26.242188 -33.421875 26.578125 -36.234375 C 26.628906 -36.660156 26.65625 -37.253906 26.65625 -38.015625 C 26.65625 -40.347656 26.117188 -42.191406 25.046875 -43.546875 C 23.972656 -44.910156 22.507812 -45.59375 20.65625 -45.59375 Z M 14.4375 -45.59375 "/></g></g></g><g fill="#1d2a3a" fill-opacity="1"><g transform="translate(683.683108, 1175.350574)"><g><path d="M 4.28125 0 C 3.8125 0 3.625 -0.238281 3.71875 -0.71875 L 9.640625 -49.296875 C 9.742188 -49.773438 10.007812 -50.015625 10.4375 -50.015625 L 21.078125 -50.015625 C 24.265625 -50.015625 26.773438 -49.050781 28.609375 -47.125 C 30.453125 -45.195312 31.375 -42.539062 31.375 -39.15625 C 31.375 -38.675781 31.320312 -37.867188 31.21875 -36.734375 L 28.296875 -13.296875 C 27.816406 -9.242188 26.363281 -6.015625 23.9375 -3.609375 C 21.507812 -1.203125 18.53125 0 15 0 Z M 9.078125 -4.71875 C 9.078125 -4.53125 9.171875 -4.4375 9.359375 -4.4375 L 15.4375 -4.5 C 17.476562 -4.5 19.210938 -5.296875 20.640625 -6.890625 C 22.078125 -8.484375 22.984375 -10.6875 23.359375 -13.5 L 26.15625 -36.515625 C 26.25 -37.460938 26.296875 -38.128906 26.296875 -38.515625 C 26.296875 -40.753906 25.78125 -42.492188 24.75 -43.734375 C 23.726562 -44.972656 22.3125 -45.59375 20.5 -45.59375 L 14.4375 -45.59375 C 14.34375 -45.59375 14.257812 -45.566406 14.1875 -45.515625 C 14.113281 -45.460938 14.078125 -45.390625 14.078125 -45.296875 Z M 9.078125 -4.71875 "/></g></g></g><g fill="#1d2a3a" fill-opacity="1"><g transform="translate(715.906678, 1175.350574)"><g><path d="M 1.21875 5.640625 C 1.019531 5.640625 0.875 5.554688 0.78125 5.390625 C 0.6875 5.222656 0.664062 5.046875 0.71875 4.859375 L 4.71875 -10.4375 C 4.863281 -10.863281 5.125 -11.078125 5.5 -11.078125 L 8.640625 -11.078125 C 9.117188 -11.078125 9.285156 -10.816406 9.140625 -10.296875 L 4.140625 5 C 4.097656 5.425781 3.835938 5.640625 3.359375 5.640625 Z M 1.21875 5.640625 "/></g></g></g><g fill="#1d2a3a" fill-opacity="1"><g transform="translate(728.195915, 1175.350574)"><g/></g></g><g fill="#1d2a3a" fill-opacity="1"><g transform="translate(742.057052, 1175.350574)"><g><path d="M 30.796875 -49.515625 C 30.984375 -49.847656 31.289062 -50.015625 31.71875 -50.015625 L 35.296875 -50.015625 C 35.535156 -50.015625 35.710938 -49.941406 35.828125 -49.796875 C 35.953125 -49.660156 35.988281 -49.492188 35.9375 -49.296875 L 29.9375 -0.71875 C 29.9375 -0.519531 29.863281 -0.347656 29.71875 -0.203125 C 29.582031 -0.0664062 29.394531 0 29.15625 0 L 25.65625 0 C 25.226562 0 25.015625 -0.238281 25.015625 -0.71875 L 29.71875 -39.015625 C 29.769531 -39.160156 29.757812 -39.234375 29.6875 -39.234375 C 29.613281 -39.234375 29.53125 -39.179688 29.4375 -39.078125 L 20.296875 -23.65625 C 20.148438 -23.320312 19.910156 -23.15625 19.578125 -23.15625 C 19.148438 -23.15625 18.910156 -23.320312 18.859375 -23.65625 L 13.5 -39.015625 C 13.457031 -39.109375 13.398438 -39.15625 13.328125 -39.15625 C 13.253906 -39.15625 13.191406 -39.082031 13.140625 -38.9375 L 8.5 -0.71875 C 8.457031 -0.519531 8.363281 -0.347656 8.21875 -0.203125 C 8.070312 -0.0664062 7.90625 0 7.71875 0 L 4.140625 0 C 3.671875 0 3.484375 -0.238281 3.578125 -0.71875 L 9.5 -49.296875 C 9.59375 -49.773438 9.859375 -50.015625 10.296875 -50.015625 L 13.9375 -50.015625 C 14.363281 -50.015625 14.597656 -49.847656 14.640625 -49.515625 L 20.578125 -33.015625 C 20.578125 -32.921875 20.625 -32.875 20.71875 -32.875 C 20.8125 -32.875 20.882812 -32.921875 20.9375 -33.015625 Z M 30.796875 -49.515625 "/></g></g></g><g fill="#1d2a3a" fill-opacity="1"><g transform="translate(778.138868, 1175.350574)"><g><path d="M 14.296875 0.578125 C 11.054688 0.578125 8.484375 -0.382812 6.578125 -2.3125 C 4.671875 -4.25 3.71875 -6.835938 3.71875 -10.078125 C 3.71875 -10.453125 3.765625 -11.070312 3.859375 -11.9375 L 7.078125 -38.078125 C 7.546875 -41.796875 9.03125 -44.8125 11.53125 -47.125 C 14.039062 -49.4375 17.054688 -50.59375 20.578125 -50.59375 C 23.816406 -50.59375 26.398438 -49.640625 28.328125 -47.734375 C 30.253906 -45.828125 31.21875 -43.273438 31.21875 -40.078125 C 31.21875 -39.703125 31.171875 -39.035156 31.078125 -38.078125 L 27.859375 -11.9375 C 27.390625 -8.164062 25.90625 -5.132812 23.40625 -2.84375 C 20.90625 -0.5625 17.867188 0.578125 14.296875 0.578125 Z M 14.796875 -3.859375 C 16.929688 -3.859375 18.75 -4.582031 20.25 -6.03125 C 21.75 -7.488281 22.644531 -9.359375 22.9375 -11.640625 L 26.21875 -38.296875 C 26.269531 -38.585938 26.296875 -38.96875 26.296875 -39.4375 C 26.296875 -41.4375 25.722656 -43.054688 24.578125 -44.296875 C 23.429688 -45.535156 21.90625 -46.15625 20 -46.15625 C 17.957031 -46.15625 16.195312 -45.425781 14.71875 -43.96875 C 13.238281 -42.519531 12.359375 -40.628906 12.078125 -38.296875 L 8.78125 -11.640625 C 8.738281 -11.359375 8.71875 -10.929688 8.71875 -10.359375 C 8.71875 -8.410156 9.265625 -6.835938 10.359375 -5.640625 C 11.453125 -4.453125 12.929688 -3.859375 14.796875 -3.859375 Z M 14.796875 -3.859375 "/></g></g></g><g fill="#1d2a3a" fill-opacity="1"><g transform="translate(809.719388, 1175.350574)"><g><path d="M 11.859375 0 C 11.484375 0 11.242188 -0.210938 11.140625 -0.640625 L 7.078125 -49.234375 C 7.078125 -49.753906 7.3125 -50.015625 7.78125 -50.015625 L 11.71875 -50.015625 C 12.144531 -50.015625 12.359375 -49.800781 12.359375 -49.375 L 14.9375 -9.4375 C 14.976562 -9.332031 15.019531 -9.28125 15.0625 -9.28125 C 15.113281 -9.28125 15.164062 -9.332031 15.21875 -9.4375 L 27.578125 -49.375 C 27.671875 -49.800781 27.929688 -50.015625 28.359375 -50.015625 L 32.15625 -50.015625 C 32.632812 -50.015625 32.800781 -49.753906 32.65625 -49.234375 L 16.65625 -0.640625 C 16.507812 -0.210938 16.222656 0 15.796875 0 Z M 11.859375 0 "/></g></g></g><g fill="#1d2a3a" fill-opacity="1"><g transform="translate(840.156709, 1175.350574)"><g><path d="M 4.28125 0 C 3.8125 0 3.625 -0.238281 3.71875 -0.71875 L 9.640625 -49.296875 C 9.742188 -49.773438 10.007812 -50.015625 10.4375 -50.015625 L 14 -50.015625 C 14.195312 -50.015625 14.351562 -49.941406 14.46875 -49.796875 C 14.582031 -49.660156 14.617188 -49.492188 14.578125 -49.296875 L 8.640625 -0.71875 C 8.597656 -0.519531 8.503906 -0.347656 8.359375 -0.203125 C 8.210938 -0.0664062 8.046875 0 7.859375 0 Z M 4.28125 0 "/></g></g></g><g fill="#1d2a3a" fill-opacity="1"><g transform="translate(855.018145, 1175.350574)"><g><path d="M 29.078125 -49.296875 C 29.078125 -49.492188 29.148438 -49.660156 29.296875 -49.796875 C 29.441406 -49.941406 29.632812 -50.015625 29.875 -50.015625 L 33.296875 -50.015625 C 33.722656 -50.015625 33.9375 -49.773438 33.9375 -49.296875 L 27.9375 -0.71875 C 27.84375 -0.238281 27.582031 0 27.15625 0 L 23.078125 0 C 22.742188 0 22.503906 -0.191406 22.359375 -0.578125 L 13.4375 -37.515625 C 13.382812 -37.660156 13.3125 -37.71875 13.21875 -37.6875 C 13.125 -37.664062 13.078125 -37.582031 13.078125 -37.4375 L 8.640625 -0.71875 C 8.597656 -0.519531 8.503906 -0.347656 8.359375 -0.203125 C 8.210938 -0.0664062 8.046875 0 7.859375 0 L 4.28125 0 C 3.8125 0 3.625 -0.238281 3.71875 -0.71875 L 9.640625 -49.296875 C 9.742188 -49.773438 10.007812 -50.015625 10.4375 -50.015625 L 14.4375 -50.015625 C 14.863281 -50.015625 15.097656 -49.828125 15.140625 -49.453125 L 24.21875 -12.4375 C 24.21875 -12.289062 24.265625 -12.226562 24.359375 -12.25 C 24.460938 -12.28125 24.535156 -12.363281 24.578125 -12.5 Z M 29.078125 -49.296875 "/></g></g></g><g fill="#1d2a3a" fill-opacity="1"><g transform="translate(889.242314, 1175.350574)"><g><path d="M 14.140625 0.578125 C 10.953125 0.578125 8.414062 -0.328125 6.53125 -2.140625 C 4.65625 -3.953125 3.71875 -6.40625 3.71875 -9.5 C 3.71875 -9.882812 3.765625 -10.503906 3.859375 -11.359375 L 7.21875 -38.65625 C 7.695312 -42.28125 9.132812 -45.175781 11.53125 -47.34375 C 13.9375 -49.507812 16.90625 -50.59375 20.4375 -50.59375 C 23.625 -50.59375 26.160156 -49.695312 28.046875 -47.90625 C 29.929688 -46.125 30.875 -43.679688 30.875 -40.578125 C 30.875 -40.203125 30.820312 -39.535156 30.71875 -38.578125 L 30.375 -35.515625 C 30.269531 -35.035156 30.003906 -34.796875 29.578125 -34.796875 L 26.015625 -34.796875 C 25.816406 -34.796875 25.65625 -34.863281 25.53125 -35 C 25.414062 -35.144531 25.382812 -35.316406 25.4375 -35.515625 L 25.796875 -38.734375 C 25.835938 -39.015625 25.859375 -39.441406 25.859375 -40.015625 C 25.859375 -41.867188 25.320312 -43.351562 24.25 -44.46875 C 23.1875 -45.59375 21.722656 -46.15625 19.859375 -46.15625 C 17.816406 -46.15625 16.078125 -45.472656 14.640625 -44.109375 C 13.210938 -42.753906 12.359375 -40.960938 12.078125 -38.734375 L 8.71875 -11.296875 C 8.664062 -11.003906 8.640625 -10.617188 8.640625 -10.140625 C 8.640625 -8.234375 9.175781 -6.707031 10.25 -5.5625 C 11.320312 -4.425781 12.785156 -3.859375 14.640625 -3.859375 C 16.742188 -3.859375 18.507812 -4.535156 19.9375 -5.890625 C 21.363281 -7.253906 22.195312 -9.054688 22.4375 -11.296875 L 23.578125 -20.4375 C 23.578125 -20.625 23.503906 -20.71875 23.359375 -20.71875 L 17.359375 -20.71875 C 16.890625 -20.71875 16.703125 -20.957031 16.796875 -21.4375 L 17.15625 -24.4375 C 17.25 -24.914062 17.507812 -25.15625 17.9375 -25.15625 L 28.359375 -25.15625 C 28.796875 -25.15625 29.015625 -24.914062 29.015625 -24.4375 L 27.359375 -11.359375 C 26.929688 -7.742188 25.503906 -4.847656 23.078125 -2.671875 C 20.648438 -0.503906 17.671875 0.578125 14.140625 0.578125 Z M 14.140625 0.578125 "/></g></g></g><g fill="#1d2a3a" fill-opacity="1"><g transform="translate(920.465584, 1175.350574)"><g/></g></g><g fill="#1d2a3a" fill-opacity="1"><g transform="translate(934.326721, 1175.350574)"><g><path d="M 10.5 0 C 10.070312 0 9.859375 -0.210938 9.859375 -0.640625 L 6.640625 -49.234375 C 6.640625 -49.472656 6.710938 -49.660156 6.859375 -49.796875 C 7.003906 -49.941406 7.171875 -50.015625 7.359375 -50.015625 L 11.078125 -50.015625 C 11.503906 -50.015625 11.71875 -49.800781 11.71875 -49.375 L 13.640625 -11.796875 C 13.691406 -11.691406 13.738281 -11.640625 13.78125 -11.640625 C 13.832031 -11.640625 13.882812 -11.691406 13.9375 -11.796875 L 24.15625 -49.375 C 24.289062 -49.800781 24.550781 -50.015625 24.9375 -50.015625 L 28.078125 -50.015625 C 28.503906 -50.015625 28.71875 -49.800781 28.71875 -49.375 L 30.015625 -11.796875 C 30.054688 -11.597656 30.148438 -11.597656 30.296875 -11.796875 L 40.875 -49.375 C 40.96875 -49.800781 41.226562 -50.015625 41.65625 -50.015625 L 45.296875 -50.015625 C 45.535156 -50.015625 45.703125 -49.941406 45.796875 -49.796875 C 45.890625 -49.660156 45.890625 -49.472656 45.796875 -49.234375 L 31.296875 -0.640625 C 31.148438 -0.210938 30.863281 0 30.4375 0 L 27.015625 0 C 26.628906 0 26.4375 -0.210938 26.4375 -0.640625 L 25.21875 -38.375 C 25.175781 -38.46875 25.128906 -38.515625 25.078125 -38.515625 C 25.035156 -38.515625 24.988281 -38.46875 24.9375 -38.375 L 14.640625 -0.640625 C 14.503906 -0.210938 14.242188 0 13.859375 0 Z M 10.5 0 "/></g></g></g><g fill="#1d2a3a" fill-opacity="1"><g transform="translate(977.482032, 1175.350574)"><g><path d="M 4.28125 0 C 3.8125 0 3.625 -0.238281 3.71875 -0.71875 L 9.640625 -49.296875 C 9.742188 -49.773438 10.007812 -50.015625 10.4375 -50.015625 L 14 -50.015625 C 14.195312 -50.015625 14.351562 -49.941406 14.46875 -49.796875 C 14.582031 -49.660156 14.617188 -49.492188 14.578125 -49.296875 L 8.640625 -0.71875 C 8.597656 -0.519531 8.503906 -0.347656 8.359375 -0.203125 C 8.210938 -0.0664062 8.046875 0 7.859375 0 Z M 4.28125 0 "/></g></g></g><g fill="#1d2a3a" fill-opacity="1"><g transform="translate(992.343468, 1175.350574)"><g><path d="M 31.015625 -50.015625 C 31.441406 -50.015625 31.65625 -49.773438 31.65625 -49.296875 L 31.21875 -46.296875 C 31.21875 -46.109375 31.144531 -45.941406 31 -45.796875 C 30.863281 -45.660156 30.703125 -45.59375 30.515625 -45.59375 L 21.359375 -45.59375 C 21.265625 -45.59375 21.179688 -45.566406 21.109375 -45.515625 C 21.035156 -45.460938 21 -45.390625 21 -45.296875 L 15.578125 -0.71875 C 15.523438 -0.519531 15.425781 -0.347656 15.28125 -0.203125 C 15.144531 -0.0664062 14.984375 0 14.796875 0 L 11.21875 0 C 10.738281 0 10.546875 -0.238281 10.640625 -0.71875 L 16.078125 -45.296875 C 16.117188 -45.347656 16.113281 -45.410156 16.0625 -45.484375 C 16.019531 -45.554688 15.953125 -45.59375 15.859375 -45.59375 L 7.28125 -45.59375 C 7.050781 -45.59375 6.875 -45.660156 6.75 -45.796875 C 6.632812 -45.941406 6.597656 -46.109375 6.640625 -46.296875 L 7 -49.296875 C 7.09375 -49.773438 7.351562 -50.015625 7.78125 -50.015625 Z M 31.015625 -50.015625 "/></g></g></g><g fill="#1d2a3a" fill-opacity="1"><g transform="translate(1021.637641, 1175.350574)"><g><path d="M 27.4375 -49.296875 C 27.488281 -49.492188 27.582031 -49.660156 27.71875 -49.796875 C 27.863281 -49.941406 28.03125 -50.015625 28.21875 -50.015625 L 31.796875 -50.015625 C 32.273438 -50.015625 32.46875 -49.773438 32.375 -49.296875 L 26.4375 -0.71875 C 26.34375 -0.238281 26.082031 0 25.65625 0 L 22.078125 0 C 21.890625 0 21.734375 -0.0664062 21.609375 -0.203125 C 21.492188 -0.347656 21.457031 -0.519531 21.5 -0.71875 L 24.15625 -22.5 C 24.195312 -22.550781 24.191406 -22.613281 24.140625 -22.6875 C 24.097656 -22.757812 24.03125 -22.796875 23.9375 -22.796875 L 11.578125 -22.796875 C 11.390625 -22.796875 11.296875 -22.695312 11.296875 -22.5 L 8.640625 -0.71875 C 8.597656 -0.519531 8.503906 -0.347656 8.359375 -0.203125 C 8.210938 -0.0664062 8.046875 0 7.859375 0 L 4.28125 0 C 3.8125 0 3.625 -0.238281 3.71875 -0.71875 L 9.640625 -49.296875 C 9.742188 -49.773438 10.007812 -50.015625 10.4375 -50.015625 L 14 -50.015625 C 14.195312 -50.015625 14.351562 -49.941406 14.46875 -49.796875 C 14.582031 -49.660156 14.617188 -49.492188 14.578125 -49.296875 L 11.9375 -27.578125 C 11.882812 -27.535156 11.878906 -27.476562 11.921875 -27.40625 C 11.972656 -27.332031 12.046875 -27.296875 12.140625 -27.296875 L 24.515625 -27.296875 C 24.703125 -27.296875 24.796875 -27.390625 24.796875 -27.578125 Z M 27.4375 -49.296875 "/></g></g></g><g fill="#1d2a3a" fill-opacity="1"><g transform="translate(1054.361361, 1175.350574)"><g/></g></g><g fill="#1d2a3a" fill-opacity="1"><g transform="translate(1068.222498, 1175.350574)"><g><path d="M 14.140625 0.578125 C 10.953125 0.578125 8.414062 -0.347656 6.53125 -2.203125 C 4.65625 -4.066406 3.71875 -6.597656 3.71875 -9.796875 C 3.71875 -10.171875 3.765625 -10.835938 3.859375 -11.796875 L 7.140625 -38.296875 C 7.617188 -42.015625 9.0625 -44.992188 11.46875 -47.234375 C 13.875 -49.472656 16.863281 -50.59375 20.4375 -50.59375 C 23.675781 -50.59375 26.234375 -49.660156 28.109375 -47.796875 C 29.992188 -45.941406 30.9375 -43.421875 30.9375 -40.234375 C 30.9375 -39.796875 30.890625 -39.148438 30.796875 -38.296875 L 30.578125 -37.078125 C 30.578125 -36.890625 30.503906 -36.722656 30.359375 -36.578125 C 30.222656 -36.441406 30.0625 -36.375 29.875 -36.375 L 26.21875 -36.15625 C 25.789062 -36.15625 25.578125 -36.394531 25.578125 -36.875 L 25.796875 -38.65625 C 25.835938 -38.9375 25.859375 -39.363281 25.859375 -39.9375 C 25.859375 -41.84375 25.320312 -43.351562 24.25 -44.46875 C 23.1875 -45.59375 21.722656 -46.15625 19.859375 -46.15625 C 17.816406 -46.15625 16.078125 -45.460938 14.640625 -44.078125 C 13.210938 -42.703125 12.359375 -40.894531 12.078125 -38.65625 L 8.71875 -11.359375 C 8.664062 -11.078125 8.640625 -10.695312 8.640625 -10.21875 C 8.640625 -8.3125 9.175781 -6.773438 10.25 -5.609375 C 11.320312 -4.441406 12.785156 -3.859375 14.640625 -3.859375 C 16.742188 -3.859375 18.507812 -4.546875 19.9375 -5.921875 C 21.363281 -7.304688 22.195312 -9.117188 22.4375 -11.359375 L 22.65625 -13.140625 C 22.695312 -13.335938 22.789062 -13.503906 22.9375 -13.640625 C 23.082031 -13.785156 23.25 -13.859375 23.4375 -13.859375 L 27.015625 -13.640625 C 27.242188 -13.640625 27.414062 -13.566406 27.53125 -13.421875 C 27.65625 -13.285156 27.695312 -13.125 27.65625 -12.9375 L 27.515625 -11.796875 C 27.035156 -8.023438 25.578125 -5.019531 23.140625 -2.78125 C 20.710938 -0.539062 17.710938 0.578125 14.140625 0.578125 Z M 14.140625 0.578125 "/></g></g></g><g fill="#1d2a3a" fill-opacity="1"><g transform="translate(1099.088518, 1175.350574)"><g><path d="M 21.9375 0 C 21.457031 0 21.21875 -0.210938 21.21875 -0.640625 L 20.578125 -9.5 C 20.578125 -9.695312 20.484375 -9.796875 20.296875 -9.796875 L 7.71875 -9.796875 C 7.625 -9.796875 7.539062 -9.769531 7.46875 -9.71875 C 7.394531 -9.664062 7.359375 -9.59375 7.359375 -9.5 L 4.5 -0.640625 C 4.351562 -0.210938 4.066406 0 3.640625 0 L 0.140625 0 C -0.0976562 0 -0.265625 -0.0664062 -0.359375 -0.203125 C -0.453125 -0.347656 -0.453125 -0.539062 -0.359375 -0.78125 L 16 -49.375 C 16.09375 -49.800781 16.359375 -50.015625 16.796875 -50.015625 L 21 -50.015625 C 21.4375 -50.015625 21.65625 -49.800781 21.65625 -49.375 L 26.21875 -0.78125 C 26.21875 -0.257812 25.984375 0 25.515625 0 Z M 8.78125 -14.21875 C 8.78125 -14.03125 8.851562 -13.9375 9 -13.9375 L 19.9375 -13.9375 C 20.082031 -13.9375 20.15625 -14.03125 20.15625 -14.21875 L 18.078125 -42.296875 C 18.078125 -42.441406 18.050781 -42.515625 18 -42.515625 C 17.957031 -42.515625 17.890625 -42.441406 17.796875 -42.296875 Z M 8.78125 -14.21875 "/></g></g></g><g fill="#1d2a3a" fill-opacity="1"><g transform="translate(1127.453842, 1175.350574)"><g><path d="M 23.015625 0 C 22.628906 0 22.363281 -0.191406 22.21875 -0.578125 L 17.859375 -22.65625 C 17.859375 -22.789062 17.789062 -22.859375 17.65625 -22.859375 L 11.578125 -22.859375 C 11.523438 -22.859375 11.460938 -22.832031 11.390625 -22.78125 C 11.328125 -22.738281 11.296875 -22.671875 11.296875 -22.578125 L 8.640625 -0.71875 C 8.597656 -0.519531 8.503906 -0.347656 8.359375 -0.203125 C 8.210938 -0.0664062 8.046875 0 7.859375 0 L 4.28125 0 C 3.8125 0 3.625 -0.238281 3.71875 -0.71875 L 9.640625 -49.296875 C 9.742188 -49.773438 10.007812 -50.015625 10.4375 -50.015625 L 21.859375 -50.015625 C 24.859375 -50.015625 27.238281 -48.988281 29 -46.9375 C 30.769531 -44.894531 31.65625 -42.160156 31.65625 -38.734375 C 31.65625 -38.203125 31.609375 -37.367188 31.515625 -36.234375 C 31.128906 -33.128906 30.148438 -30.457031 28.578125 -28.21875 C 27.003906 -25.976562 25.050781 -24.410156 22.71875 -23.515625 C 22.53125 -23.460938 22.4375 -23.34375 22.4375 -23.15625 L 27.296875 -0.78125 L 27.296875 -0.640625 C 27.296875 -0.210938 27.054688 0 26.578125 0 Z M 14.4375 -45.59375 C 14.34375 -45.59375 14.257812 -45.566406 14.1875 -45.515625 C 14.113281 -45.460938 14.078125 -45.390625 14.078125 -45.296875 L 11.859375 -27.21875 C 11.859375 -27.125 11.878906 -27.050781 11.921875 -27 C 11.972656 -26.957031 12.023438 -26.9375 12.078125 -26.9375 L 18.359375 -26.9375 C 20.453125 -26.9375 22.257812 -27.78125 23.78125 -29.46875 C 25.3125 -31.164062 26.242188 -33.421875 26.578125 -36.234375 C 26.628906 -36.660156 26.65625 -37.253906 26.65625 -38.015625 C 26.65625 -40.347656 26.117188 -42.191406 25.046875 -43.546875 C 23.972656 -44.910156 22.507812 -45.59375 20.65625 -45.59375 Z M 14.4375 -45.59375 "/></g></g></g><g fill="#1d2a3a" fill-opacity="1"><g transform="translate(1158.176962, 1175.350574)"><g><path d="M 31.21875 -46.296875 C 31.21875 -46.109375 31.144531 -45.941406 31 -45.796875 C 30.863281 -45.660156 30.703125 -45.59375 30.515625 -45.59375 L 14.4375 -45.59375 C 14.34375 -45.59375 14.257812 -45.566406 14.1875 -45.515625 C 14.113281 -45.460938 14.078125 -45.390625 14.078125 -45.296875 L 11.9375 -27.578125 C 11.882812 -27.535156 11.878906 -27.476562 11.921875 -27.40625 C 11.972656 -27.332031 12.046875 -27.296875 12.140625 -27.296875 L 22.296875 -27.296875 C 22.773438 -27.296875 22.960938 -27.054688 22.859375 -26.578125 L 22.5 -23.515625 C 22.40625 -23.035156 22.144531 -22.796875 21.71875 -22.796875 L 11.578125 -22.796875 C 11.390625 -22.796875 11.296875 -22.695312 11.296875 -22.5 L 9.078125 -4.71875 C 9.078125 -4.53125 9.171875 -4.4375 9.359375 -4.4375 L 25.4375 -4.4375 C 25.914062 -4.4375 26.109375 -4.195312 26.015625 -3.71875 L 25.65625 -0.71875 C 25.5625 -0.238281 25.296875 0 24.859375 0 L 4.28125 0 C 3.8125 0 3.625 -0.238281 3.71875 -0.71875 L 9.640625 -49.296875 C 9.742188 -49.773438 10.007812 -50.015625 10.4375 -50.015625 L 31.015625 -50.015625 C 31.441406 -50.015625 31.65625 -49.773438 31.65625 -49.296875 Z M 31.21875 -46.296875 "/></g></g></g><g fill="#1d2a3a" fill-opacity="1"><g transform="translate(1187.899835, 1175.350574)"><g><path d="M 5.21875 -0.140625 C 4.175781 -0.140625 3.34375 -0.457031 2.71875 -1.09375 C 2.101562 -1.738281 1.796875 -2.5625 1.796875 -3.5625 C 1.796875 -4.894531 2.222656 -5.988281 3.078125 -6.84375 C 3.929688 -7.707031 4.976562 -8.140625 6.21875 -8.140625 C 7.21875 -8.140625 8.039062 -7.828125 8.6875 -7.203125 C 9.332031 -6.585938 9.65625 -5.753906 9.65625 -4.703125 C 9.65625 -3.421875 9.222656 -2.335938 8.359375 -1.453125 C 7.503906 -0.578125 6.457031 -0.140625 5.21875 -0.140625 Z M 5.21875 -0.140625 "/></g></g></g></svg>